<svg width="161" height="31" viewBox="0 0 161 31" fill="none" xmlns="http://www.w3.org/2000/svg">
<path d="M3.45691 28.675C4.48918 28.8039 6.74574 28.6893 9.66251 28.3669C11.8591 28.1233 45.7919 27.9657 55.8025 28.1519C58.5393 28.2021 62.5963 28.2738 64.8049 28.3096C68.91 28.3741 69.246 28.3812 74.6114 28.6033C76.3279 28.6749 79.6648 28.7609 82.0294 28.7896C84.394 28.8182 86.9747 28.8684 87.7789 28.8899C88.5831 28.9114 92.8922 28.9974 97.3694 29.0762C101.847 29.155 105.556 29.2338 105.64 29.2553C105.712 29.2768 107.308 29.3341 109.18 29.377C111.053 29.42 113.166 29.5418 113.886 29.6421C114.966 29.7926 116.502 29.814 123.008 29.7567C132.238 29.6779 140.917 29.678 141.145 29.7424C141.229 29.7711 143.413 29.7997 145.994 29.8141C152.116 29.8499 152.932 29.9215 154.084 30.5448C154.924 30.9962 155.056 31.0248 156.149 30.989C157.277 30.9532 157.337 30.9317 157.973 30.3514C158.393 29.9645 158.633 29.5562 158.645 29.2051C158.657 28.9042 158.837 28.3096 159.066 27.8797C159.39 27.2349 159.462 26.497 159.426 23.7173C159.402 21.8617 159.318 19.7912 159.234 19.1106C159.09 17.9357 159.114 17.864 159.678 17.4843C160.614 16.8539 161.058 16.1805 160.782 15.7793C160.626 15.55 160.638 15.3924 160.83 15.2778C160.986 15.1846 161.046 14.984 160.962 14.8264C160.89 14.6688 160.782 14.3536 160.722 14.1243C160.446 12.8992 160.086 12.1756 159.462 11.5738C159.173 11.3016 159.186 11.1655 159.51 10.6067C159.726 10.2484 159.99 9.86874 160.098 9.76128C160.206 9.65381 160.242 9.53202 160.17 9.4962C160.098 9.46038 160.002 9.16663 159.966 8.8514C159.834 7.60482 159.534 6.69495 159.21 6.51584C159.017 6.40838 158.873 6.26513 158.873 6.19348C158.873 6.12184 158.585 5.94988 158.237 5.81376C157.733 5.62032 157.601 5.45557 157.601 5.07586C157.601 4.81078 157.505 4.56002 157.385 4.5242C157.265 4.48838 157.181 4.31645 157.181 4.13734C157.181 3.95824 156.929 3.57135 156.605 3.27045C156.293 2.96955 155.741 2.34626 155.381 1.88775C154.48 0.719976 153.544 0.0751918 152.788 0.0966846C151.624 0.132506 149.991 0.268608 149.223 0.3904C148.791 0.462043 148.335 0.483541 148.203 0.440555C148.071 0.39757 147.711 0.447737 147.41 0.548037C146.87 0.719979 144.278 0.727114 140.653 0.562336C140.053 0.533679 137.988 0.483548 136.067 0.447727C134.147 0.411905 132.238 0.34024 131.818 0.29009C131.398 0.23994 129.322 0.196958 127.209 0.204122C124.148 0.211287 123.32 0.247108 123.14 0.383229C122.972 0.512186 122.864 0.519385 122.732 0.419085C122.54 0.268636 120.763 0.232814 115.134 0.239979C106.864 0.261472 103.059 0.297295 102.627 0.376102C102.363 0.419087 101.727 0.411902 101.21 0.354588C100.562 0.282945 99.65 0.304427 98.3057 0.433384C97.2014 0.533684 96.2291 0.569539 96.073 0.512224C95.929 0.45491 94.9807 0.433405 93.9845 0.454898C92.9762 0.483555 91.1157 0.51938 89.8554 0.548037C85.5823 0.634008 83.5778 0.705619 83.3257 0.784426C83.1937 0.827412 83.0136 0.805928 82.9416 0.748614C82.8696 0.684135 82.3415 0.662674 81.7653 0.691331C79.7248 0.805959 75.3796 0.820272 74.6834 0.719972C74.2153 0.655494 73.8553 0.66265 73.6272 0.755785C73.4352 0.834592 72.5589 0.906221 71.6587 0.920549C70.7705 0.934878 69.2701 0.985045 68.3338 1.02803C66.2453 1.13549 63.8087 1.17849 54.3502 1.26446C50.2691 1.30029 44.5316 1.36477 41.5789 1.40776C38.6381 1.45074 35.1932 1.4937 33.9209 1.50802C32.6485 1.52235 30.584 1.57252 29.3236 1.61551C28.0633 1.65849 25.9868 1.72297 24.7025 1.75163C23.4181 1.78029 21.3055 1.83759 19.9972 1.87341C16.6603 1.97371 16.6123 1.96657 16.7804 1.04954C17.1164 -0.741523 15.5081 -0.132579 14.1157 2.05969C13.6836 2.73313 13.6115 2.82626 12.8793 3.70746C12.3872 4.29493 12.0871 4.3451 9.35041 4.30928C7.26187 4.28062 6.38564 4.05136 5.90552 3.41374C5.26935 2.57553 4.80122 3.0412 4.62118 4.71048C4.53715 5.46989 4.30913 6.49437 4.12908 6.98154C3.93703 7.46871 3.805 7.90571 3.829 7.94869C3.85301 7.99168 3.74496 8.22095 3.58892 8.4502C3.43288 8.67946 3.19281 9.17381 3.04877 9.54636C2.83271 10.0908 2.65272 10.2556 2.12458 10.3846C1.76448 10.4705 1.14028 10.664 0.732173 10.8073L0 11.0723L0.168061 12.5052C0.264086 13.2933 0.468146 14.4396 0.624186 15.0557C0.864249 15.987 1.00827 16.202 1.42838 16.3094C2.22058 16.5172 2.3166 16.6605 2.17256 17.3697C1.95651 18.3799 1.8845 18.5304 1.58442 18.8169C1.42838 18.9674 1.36838 19.2468 1.45241 19.4617C2.11258 21.0593 2.37663 26.7478 1.81248 27.0845C1.38037 27.3639 2.64069 28.5747 3.45691 28.675ZM117.091 23.7746C116.262 23.7746 115.89 23.5668 116.526 23.4522C116.766 23.4092 117.139 23.3017 117.343 23.2157C117.559 23.1226 117.847 23.1012 118.039 23.1585C118.591 23.3376 117.919 23.7746 117.091 23.7746ZM154.06 24.1185L151.071 24.0826C149.427 24.0611 147.566 24.0397 146.93 24.0325C145.538 24.011 145.466 23.8749 146.69 23.617C149.511 23.0152 153.556 21.611 153.556 21.2384C153.556 21.174 153.652 21.1238 153.772 21.1238C153.892 21.1238 154 21.7973 154.024 22.6211L154.06 24.1185Z" fill="white"/>
</svg>
