<svg width="400" height="3" viewBox="0 0 400 3" fill="none" xmlns="http://www.w3.org/2000/svg">
<path d="M361.865 0.151568C362.103 0.17051 362.499 0.151531 362.768 0.113647C362.768 0.113647 362.768 0.113647 362.8 0.113647C363.132 0.170473 363.417 0.0947054 363.544 0.113647C363.988 0.151531 364.304 0.151531 364.795 0.113647C364.922 0.0947054 365.524 0.151587 365.952 0.170529C366.268 0.170529 366.269 0.170529 366.269 0.170529C366.665 0.151587 367.25 0.151568 367.567 0.151568C367.884 0.151568 369.183 0.189489 369.769 0.189489C369.769 0.189489 369.769 0.189452 370.228 0.151568C370.276 0.151568 370.434 0.151568 370.529 0.151568C371.068 0.17051 371.606 0.20845 372.145 0.20845C372.588 0.20845 372.588 0.20845 372.588 0.20845C373 0.170566 373.301 0.20839 373.238 0.265216C373.238 0.265216 373.238 0.265257 374.077 0.189489C374.774 0.132663 374.774 0.132608 374.774 0.132608C375.455 0.170492 376.39 0.17051 376.849 0.151568C377.309 0.132626 378.687 0.20845 379.178 0.20845C379.669 0.20845 381.316 0.265216 381.807 0.265216C381.807 0.265216 381.807 0.265257 381.775 0.189489C381.775 0.189489 382.076 0.170529 382.139 0.170529C382.773 0.227355 382.773 0.227295 382.773 0.227295C383.549 0.208353 384.42 0.227313 384.69 0.246255C384.975 0.265197 385.973 0.208353 386.226 0.227295C386.48 0.246237 387.43 0.265197 387.763 0.246255C388.095 0.227313 389.917 0.227313 390.962 0.246255C390.962 0.246255 390.962 0.246292 391.865 0.284176C392.15 0.303118 392.72 0.246255 393.164 0.246255C393.497 0.246255 393.496 0.246255 393.496 0.246255C393.877 0.265197 394.32 0.265197 394.494 0.246255C394.494 0.246255 394.494 0.246255 394.51 0.246255C395.334 0.322023 395.334 0.322097 395.334 0.322097C396.316 0.284213 397.234 0.284232 397.377 0.341058C397.52 0.397884 398.312 0.511471 398.502 0.511471C398.692 0.511471 399.23 0.51149 399.262 0.530432C399.294 0.549374 399.056 0.606177 398.739 0.625119C398.423 0.644061 398.391 0.795624 397.868 0.890334C397.868 0.890334 397.868 0.890311 398.042 0.985021C398.09 1.00396 398.09 1.00398 398.09 1.00398C398.074 1.04187 397.947 1.06084 397.821 1.0419C397.694 1.02296 397.33 1.02286 397.203 1.06075C397.203 1.06075 397.203 1.06075 397.219 1.06075C398.122 1.09863 397.06 1.17443 397.488 1.21232C397.536 1.21232 397.536 1.23128 397.488 1.23128C396.807 1.30704 396.807 1.307 396.807 1.307C396.775 1.36383 396.047 1.42067 395.176 1.43961C395.176 1.43961 395.175 1.43965 394.399 1.36388C394.273 1.34494 394.273 1.34492 394.273 1.34492C393.766 1.36387 392.958 1.38285 392.467 1.38285C391.976 1.38285 390.329 1.3639 389.885 1.38285C389.885 1.38285 389.885 1.38285 389.457 1.38285C389.046 1.38285 389.045 1.38285 389.045 1.38285C388.602 1.38285 388.079 1.36388 387.889 1.36388C387.699 1.36388 386.971 1.36388 386.733 1.36388C386.495 1.36388 384.943 1.38285 383.803 1.38285C382.662 1.38285 379.13 1.38283 378.465 1.36388C377.815 1.36388 376.057 1.42065 375.899 1.42065C375.899 1.42065 375.899 1.42065 375.756 1.42065C374.901 1.42065 374.901 1.42065 374.901 1.42065C373.982 1.40171 372.873 1.40171 372.43 1.42065C372.002 1.43959 370.608 1.40181 370.244 1.40181C369.88 1.40181 368.613 1.42075 368.185 1.40181C367.757 1.38286 365.667 1.42065 364.669 1.42065C364.669 1.42065 364.669 1.42065 363.734 1.42065C362.8 1.42065 361.881 1.42065 360.946 1.42065C360.376 1.42065 359.473 1.43959 359.299 1.42065C358.871 1.36382 358.317 1.43969 358 1.40181C357.937 1.38286 357.604 1.38286 357.414 1.40181C356.986 1.40181 356.353 1.43959 356.179 1.42065C355.561 1.36382 355.561 1.36388 355.561 1.36388C355.102 1.40177 354.468 1.42075 354.151 1.40181C353.835 1.38286 353.153 1.38283 352.789 1.36388C352.425 1.34494 351.284 1.40179 350.968 1.38285C350.651 1.3639 349.526 1.42067 349.162 1.43961C348.813 1.43961 347.467 1.38283 346.802 1.36388C346.802 1.36388 346.802 1.36382 346.089 1.42065C345.582 1.45853 345.582 1.45857 345.582 1.45857C344.6 1.43963 343.618 1.42075 343.412 1.40181C343.206 1.38286 342.272 1.38283 341.765 1.36388C341.258 1.34494 339.31 1.43965 338.423 1.47753C338.423 1.47753 338.423 1.47756 337.789 1.38285C337.726 1.38285 337.298 1.3639 337.187 1.38285C336.506 1.43967 335.714 1.34498 335.017 1.40181C334.795 1.42075 334.368 1.42065 334.067 1.42065C333.481 1.42065 332.895 1.38285 332.309 1.38285C331.802 1.38285 331.802 1.38285 331.802 1.38285C331.247 1.40179 330.535 1.42075 330.218 1.40181C329.901 1.38286 328.761 1.40179 328.491 1.38285C328.222 1.3639 327.177 1.42067 326.828 1.43961C326.48 1.45855 325.545 1.38286 325.213 1.40181C324.88 1.42075 323.359 1.40181 322.757 1.40181C322.757 1.40181 322.757 1.40181 322.203 1.40181C321.665 1.40181 321.126 1.42065 320.587 1.42065C319.59 1.42065 319.59 1.42065 319.59 1.42065C318.497 1.40171 316.723 1.40181 315.646 1.40181C315.646 1.40181 315.646 1.40173 314.743 1.43961C313.951 1.45855 313.951 1.45857 313.951 1.45857C313.143 1.43963 311.733 1.42067 310.799 1.43961C310.799 1.43961 310.799 1.43961 309.943 1.43961C309.088 1.43961 308.233 1.43961 307.377 1.43961C306.522 1.43961 305.667 1.43961 304.811 1.43961C303.956 1.43961 303.101 1.43961 302.245 1.43961C301.39 1.43961 300.535 1.43961 299.679 1.43961C299.141 1.43961 299.141 1.43961 299.141 1.43961C298.555 1.45855 298 1.47753 297.89 1.47753C297.779 1.47753 296.987 1.45857 296.337 1.45857C295.688 1.43963 292.061 1.47751 291.791 1.45857C291.538 1.43963 290.809 1.45855 290.54 1.43961C290.271 1.43961 288.956 1.45859 288.259 1.47753C288.259 1.47753 288.259 1.47753 287.61 1.47753C286.96 1.47753 286.327 1.47753 285.677 1.47753C284.965 1.47753 284.252 1.47753 283.539 1.47753C282.89 1.47753 282.256 1.47753 281.607 1.47753C280.957 1.47753 280.324 1.47753 279.674 1.47753C279.025 1.47753 278.391 1.47753 277.742 1.47753C277.092 1.47753 277.092 1.47753 277.092 1.47753C276.395 1.47753 274.289 1.47755 272.436 1.49649C270.582 1.49649 265.118 1.55328 264.421 1.57222C264.421 1.57222 264.421 1.5722 264.215 1.55326C263.676 1.51537 263.676 1.51545 263.676 1.51545C263.312 1.55334 262.583 1.53439 262.061 1.51545C262.061 1.51545 262.061 1.51539 261.395 1.57222C261.047 1.59116 260.287 1.57222 259.716 1.57222C258.782 1.57222 258.782 1.57222 258.782 1.57222C257.768 1.57222 256.58 1.57224 256.137 1.59118C255.709 1.61012 254.157 1.55324 253.697 1.5343C253.697 1.5343 253.698 1.53435 253.365 1.59118C252.89 1.66695 252.89 1.66691 252.89 1.66691C252.509 1.62902 251.781 1.61014 251.258 1.61014C250.736 1.61014 249.041 1.6291 248.629 1.6291C248.217 1.6291 246.633 1.64795 245.889 1.64795C245.889 1.64795 245.889 1.64795 245.208 1.64795C244.495 1.64795 244.495 1.64795 244.495 1.64795C243.703 1.64795 242.721 1.66691 242.309 1.66691C241.897 1.68585 240.677 1.6859 240.044 1.72379C240.044 1.72379 240.044 1.72377 239.299 1.70483C238.682 1.68588 237.89 1.70483 237.177 1.70483C236.464 1.70483 236.464 1.70483 236.464 1.70483C235.672 1.70483 234.706 1.72381 234.294 1.74275C234.294 1.74275 234.294 1.74275 233.93 1.74275C233.566 1.74275 233.566 1.74275 233.566 1.74275C233.17 1.72381 231.443 1.70485 229.748 1.72379C228.053 1.72379 223.349 1.78059 223.064 1.81847C223.064 1.81847 223.064 1.81853 222.557 1.76171C222.446 1.74277 221.749 1.78055 221.322 1.78055C220.894 1.78055 220.894 1.78055 220.894 1.78055C220.419 1.78055 219.706 1.76167 219.294 1.72379C218.882 1.6859 217.409 1.78055 216.95 1.78055C216.475 1.78055 214.859 1.78055 214.384 1.78055C213.909 1.78055 212.23 1.79951 211.691 1.79951C211.691 1.79951 211.691 1.79951 211.2 1.79951C210.741 1.79951 210.266 1.78055 209.822 1.78055C208.935 1.78055 208.935 1.78055 208.935 1.78055C207.969 1.78055 206.48 1.78055 205.641 1.78055C204.801 1.78055 202.283 1.81847 201.76 1.81847C201.76 1.81847 201.76 1.81847 201.285 1.81847C200.604 1.81847 200.604 1.81847 200.604 1.81847C199.859 1.83742 198.925 1.83742 198.545 1.81847C198.164 1.79953 196.866 1.87536 196.359 1.87536C195.852 1.87536 193.967 1.87536 193.381 1.87536C192.795 1.87536 190.245 1.87526 189.025 1.8942C187.805 1.91314 183.545 1.91316 182.277 1.91316C181.026 1.91316 177.494 1.91318 177.24 1.93212C176.987 1.95106 175.815 1.91316 175.482 1.91316C175.15 1.91316 173.898 1.97004 173.296 1.97004C172.695 1.97004 170.287 1.97004 169.305 1.97004C168.323 1.97004 164.965 1.97006 164.015 1.989C163.064 2.00795 159.009 2.00785 157.124 2.00785C157.124 2.00785 157.124 2.00785 155.414 2.00785C153.624 2.00785 153.624 2.00785 153.624 2.00785C151.66 2.00785 149.632 2.00785 149.11 2.00785C149.11 2.00785 149.11 2.00788 148.729 2.04577C148.365 2.08365 148.048 1.97 147.541 2.04577C147.446 2.06471 147.446 2.06473 147.446 2.06473C146.987 2.06473 146.322 2.06475 145.973 2.08369C145.625 2.10263 144.279 2.04579 143.487 2.06473C143.487 2.06473 143.487 2.06473 142.758 2.06473C137.183 2.06473 137.182 2.06473 137.182 2.06473C131.053 2.06473 125.398 2.04575 124.622 2.02681C124.622 2.02681 124.622 2.02686 124.02 2.08369C123.925 2.08369 123.925 2.08369 123.925 2.08369C123.671 2.08369 123.101 2.06473 122.642 2.06473C122.183 2.06473 120.884 2.06473 120.741 2.06473C120.583 2.08367 119.902 2.04577 119.712 2.04577C119.522 2.04577 118.619 2.06473 118.175 2.06473C118.175 2.06473 118.175 2.06473 117.763 2.06473L115.815 2.08369C115.387 2.08369 115.387 2.08369 115.387 2.08369C114.928 2.08369 114.469 2.06471 114.374 2.04577C114.279 2.02683 113.407 2.06473 112.996 2.06473C112.996 2.06473 112.996 2.06473 112.615 2.06473C112.425 2.06473 112.188 2.04577 112.093 2.04577C110.636 2.12154 110.636 2.1215 110.636 2.1215C108.941 2.10255 106.137 2.08369 104.411 2.08369C104.411 2.08369 104.411 2.08369 102.843 2.08369C101.845 2.08369 100.847 2.08369 99.8489 2.08369C98.9144 2.08369 98.9144 2.08369 98.9144 2.08369C97.9007 2.08369 96.681 2.08367 96.19 2.06473C95.699 2.06473 93.9725 2.14047 93.2122 2.15942C93.2122 2.15942 93.2122 2.15946 92.7053 2.08369C92.6419 2.06475 92.246 2.06475 92.1192 2.08369C91.4065 2.12157 91.4065 2.1215 91.4065 2.1215C90.5987 2.10255 89.284 2.10265 88.4603 2.10265C88.4603 2.10265 88.4604 2.10265 87.7159 2.10265C86.8606 2.10265 86.0053 2.10265 85.1499 2.10265C84.358 2.10265 83.5819 2.10265 82.7899 2.10265C81.9346 2.10265 81.0791 2.10265 80.2238 2.10265C79.4318 2.10265 78.6557 2.10265 77.8637 2.10265C77.0084 2.10265 76.1531 2.10265 75.2978 2.10265C74.5058 2.10265 74.5058 2.10265 74.5058 2.10265C73.6505 2.10265 72.3992 2.10263 71.7497 2.08369C71.1003 2.06475 69.2471 2.1215 69.0095 2.1215C68.7719 2.10255 67.3147 2.10265 66.301 2.10265C65.2872 2.10265 62.3569 2.14046 62.0084 2.14046C61.66 2.14046 60.5354 2.14044 60.282 2.1215C60.0286 2.10255 58.8564 2.14047 58.508 2.15942C58.1754 2.15942 57.0666 2.12151 56.6231 2.14046C56.1796 2.1594 54.6907 2.15942 54.2789 2.15942C53.8671 2.15942 52.5206 2.12151 52.2197 2.14046C51.9187 2.1594 50.4457 2.15942 49.6537 2.15942C48.8617 2.15942 45.6622 2.1594 44.2842 2.14046C44.2842 2.14046 44.2841 2.14051 43.112 2.19734C42.9061 2.21628 42.9061 2.2163 42.9061 2.2163C42.5734 2.2163 41.734 2.19736 41.037 2.2163C41.037 2.2163 41.0371 2.21628 40.5936 2.19734C39.8649 2.15945 39.8649 2.15942 39.8649 2.15942C39.3422 2.1973 38.5185 2.21628 38.0592 2.19734C38.0592 2.19734 38.0593 2.19736 37.5366 2.2163C36.9663 2.23524 36.9663 2.23526 36.9663 2.23526C36.2218 2.23526 35.3665 2.21632 35.0498 2.23526C34.733 2.23526 32.4362 2.17838 30.4721 2.17838C30.4721 2.17838 30.4722 2.17835 28.8407 2.27306C28.2547 2.31095 28.2546 2.31098 28.2546 2.31098C27.6052 2.29204 26.7182 2.29202 26.2905 2.29202C25.8628 2.29202 24.374 2.29202 23.9463 2.29202C23.5186 2.29202 22.5207 2.27306 22.3465 2.27306C22.1723 2.27306 21.1902 2.27306 20.6358 2.27306C20.0814 2.27306 18.2599 2.27305 17.8164 2.2541C17.3571 2.2541 16.0107 2.2541 15.6306 2.2541C15.2504 2.23516 14.3634 2.29202 14.2526 2.29202C14.1417 2.27308 13.619 2.25412 13.4764 2.27306C13.3339 2.29201 12.4469 2.31098 11.9875 2.31098C11.9875 2.31098 11.9875 2.31098 11.5598 2.31098C10.7679 2.31098 9.99174 2.31098 9.19977 2.31098C8.7721 2.31098 8.77207 2.31098 8.77207 2.31098C8.582 2.2731 8.34441 2.2541 8.28105 2.2541C8.21769 2.2541 7.98016 2.27308 7.94848 2.29202C7.9168 2.31097 6.80804 2.31097 6.06358 2.29202C6.06358 2.29202 6.0635 2.29202 5.3824 2.29202C4.8597 2.29202 4.85977 2.29202 4.85977 2.29202C4.24203 2.29202 3.83018 2.29201 3.94106 2.27306C4.05193 2.27306 4.28948 2.23524 4.09941 2.2163C3.92518 2.19736 3.81439 2.10261 3.89359 2.06473C3.97278 2.02685 4.03613 1.95108 3.7827 1.95108C3.52927 1.95108 2.95897 1.9511 3.00649 1.97004C3.054 1.98898 3.08573 2.00787 2.95902 2.02681C2.8323 2.02681 2.43627 2.00795 2.21451 1.989C1.99276 1.97006 0.868176 1.93208 0.646423 1.8942C0.424671 1.87526 0.0286925 1.78065 0.456358 1.76171C0.899862 1.74277 1.39093 1.87526 1.69188 1.8942C1.69188 1.8942 1.69185 1.8942 2.05616 1.8942C2.18287 1.8942 2.34124 1.87534 2.42043 1.8564C2.46795 1.8564 2.468 1.8564 2.468 1.8564C2.3888 1.83745 2.23036 1.83743 2.11948 1.83743C2.0086 1.83743 1.64432 1.83742 1.64432 1.81847C1.64432 1.79953 2.00864 1.74273 2.45214 1.72379C2.89565 1.70485 4.16283 1.64804 4.16283 1.6291C4.16283 1.61016 4.32118 1.53432 4.51125 1.55326C4.70133 1.5722 5.46168 1.62906 5.76263 1.59118C5.76263 1.59118 5.76263 1.59114 5.85766 1.55326C6.00022 1.51537 6.07943 1.51536 6.36454 1.5343C6.57045 1.55324 6.57036 1.55326 6.57036 1.55326C6.88715 1.55326 7.74249 1.55326 8.45526 1.55326C9.16804 1.55326 10.8945 1.49647 10.7361 1.47753C10.5778 1.47753 11.1164 1.42073 12.2885 1.38285C12.2885 1.38285 12.2885 1.38278 13.5556 1.43961C13.7932 1.45855 14.0466 1.45857 14.3 1.45857C14.4901 1.45857 14.4901 1.45857 14.4901 1.45857C14.8069 1.43963 14.9019 1.42075 14.7277 1.40181C14.5376 1.38286 14.2367 1.307 14.4585 1.307C14.4585 1.307 14.4585 1.307 14.6485 1.307C14.8703 1.307 15.1396 1.34491 15.2504 1.32596C15.9632 1.28808 15.9632 1.28816 15.9632 1.28816C16.4067 1.32604 16.8977 1.38285 17.0719 1.38285C17.2462 1.38285 17.9431 1.38283 17.7847 1.36388C17.6105 1.34494 17.7848 1.30708 18.1332 1.2692C18.4817 1.23131 19.7963 1.23128 20.0339 1.23128C20.2715 1.23128 21.2694 1.23128 21.6178 1.23128C21.9663 1.23128 23.0434 1.2313 23.5344 1.25024C24.0255 1.26918 25.0233 1.15545 25.2926 1.1744C25.5619 1.1744 26.0688 1.2313 26.1163 1.25024C26.1638 1.25024 26.3698 1.26918 26.4489 1.25024C26.4489 1.25024 26.4489 1.25022 26.4489 1.23128C26.4648 1.11762 26.4648 1.11763 26.4648 1.11763C27.2885 1.13657 28.4131 1.17441 28.9358 1.19336C28.9358 1.19336 28.9357 1.19343 29.601 1.15555C30.2029 1.11767 30.2029 1.11763 30.2029 1.11763C31.0424 1.09869 31.9927 1.07971 32.3412 1.07971C32.6896 1.07971 33.5133 1.13657 33.6717 1.11763C33.6717 1.11763 33.6717 1.11761 33.7192 1.09867C33.8142 1.07973 33.8142 1.07971 33.8142 1.07971C34.0043 1.07971 34.4954 1.07973 34.9389 1.09867C34.9389 1.09867 34.9389 1.09867 35.3349 1.09867C35.9209 1.09867 35.9209 1.09867 35.9209 1.09867C36.5386 1.07973 37.2356 1.06075 37.489 1.06075C37.7424 1.06075 38.8512 1.0419 39.3264 1.0419C39.8016 1.0419 41.4806 1.02296 41.9874 1.0419C42.4943 1.0419 44.1257 0.985021 44.6326 0.985021C45.1236 0.985021 46.565 1.00396 46.8026 0.985021C47.0402 0.966079 47.943 1.00396 48.1648 0.985021C48.3865 0.966079 49.1627 1.00396 49.3053 0.985021C49.4478 0.966079 49.9546 0.947119 50.1288 0.966061C50.2872 0.985003 50.9367 1.00398 51.2218 1.00398C51.5069 1.00398 52.6316 0.985021 53.0909 0.985021C53.5344 0.985021 54.8807 0.966079 55.2133 0.985021C55.546 0.985021 56.6072 0.966061 56.8606 0.966061C57.114 0.966061 58.112 0.947197 58.5713 0.928255C59.0306 0.909313 60.4087 0.98504 60.6938 1.00398C60.9789 1.02292 61.3274 0.928255 61.4858 0.928255C61.4858 0.928255 61.4858 0.928255 61.565 0.928255C62.2302 0.966139 62.2302 0.966061 62.2302 0.966061C62.9113 0.947119 63.529 0.909295 63.5924 0.909295C63.5924 0.909295 63.5924 0.909295 63.6399 0.909295C64.0201 0.928237 64.4319 0.9471 64.7329 0.9471C65.0972 0.928158 65.0971 0.928255 65.0971 0.928255C65.4139 0.928255 65.8258 0.928237 66.0159 0.909295C66.2059 0.890353 67.1088 0.909313 67.5206 0.928255C67.5206 0.928255 67.5206 0.928255 67.9008 0.928255C68.1542 0.928255 68.1542 0.928255 68.1542 0.928255C68.4551 0.928255 69.0412 0.909295 69.453 0.909295C69.8648 0.909295 71.3538 0.909216 71.8923 0.9471C71.8923 0.9471 71.8923 0.94716 72.5259 0.890334C72.8902 0.85245 73.6346 0.909239 74.1098 0.852413C74.1573 0.852413 74.49 0.871374 74.7117 0.871374C75.6621 0.890316 75.6621 0.890334 75.6621 0.890334C76.7075 0.871392 77.7687 0.852395 78.0063 0.833453C78.2439 0.814511 79.1151 0.852395 79.3052 0.833453C79.4953 0.814511 80.2555 0.871374 80.3664 0.871374C80.4931 0.871374 81.0634 0.871392 81.491 0.890334C81.9187 0.909276 83.5026 0.852413 84.2629 0.852413C84.2629 0.852413 84.2629 0.852469 84.8173 0.909295C84.8965 0.909295 84.8965 0.909295 84.8965 0.909295C85.134 0.909295 85.4825 0.909258 85.6726 0.871374C85.8626 0.852432 86.3854 0.833453 86.7022 0.833453C87.019 0.833453 88.5871 0.833471 89.4266 0.852413C89.4266 0.852413 89.4266 0.852473 90.0918 0.795648C90.2661 0.776705 90.8362 0.795648 91.1214 0.795648C91.7866 0.757763 91.7867 0.757726 91.7867 0.757726C92.3569 0.79561 93.0221 0.814608 93.2439 0.814608C93.4656 0.814608 94.3527 0.795666 94.6695 0.814608C94.6695 0.814608 94.6695 0.814511 94.9546 0.833453C95.3189 0.852395 95.493 0.757782 95.9682 0.814608C96.0157 0.814608 96.4909 0.795648 96.776 0.795648C97.172 0.795648 97.172 0.795648 97.172 0.795648C97.5997 0.81459 98.0908 0.814511 98.2333 0.833453C98.3917 0.833453 99.3262 0.833453 99.8965 0.833453C100.467 0.833453 101.956 0.776687 102.114 0.776687C102.272 0.776687 103.033 0.833471 103.429 0.852413C103.429 0.852413 103.429 0.852473 103.825 0.795648C104.427 0.700937 104.427 0.700845 104.427 0.700845C105.314 0.738729 106.438 0.776705 106.945 0.795648C107.436 0.81459 109.115 0.757708 109.495 0.738766C109.875 0.719824 110.937 0.719805 111.317 0.719805C111.317 0.719805 111.317 0.719824 111.57 0.738766C111.839 0.757708 111.839 0.757726 111.839 0.757726C112.077 0.79561 112.52 0.79561 112.837 0.757726C112.837 0.757726 112.837 0.757708 113.091 0.738766C113.138 0.738766 113.138 0.738766 113.138 0.738766C113.297 0.738766 113.566 0.738784 113.756 0.757726C113.946 0.776668 114.627 0.795629 114.817 0.776687C115.007 0.757745 116.639 0.757745 116.955 0.776687C117.272 0.776687 118.033 0.776705 118.334 0.795648C118.65 0.795648 119.347 0.776687 119.601 0.776687C119.854 0.776687 120.789 0.757708 121.121 0.738766C121.454 0.719824 122.848 0.776705 123.513 0.795648C123.513 0.795648 123.513 0.795592 123.941 0.738766C123.988 0.738766 124.21 0.738766 124.353 0.738766C125.224 0.757708 125.224 0.757726 125.224 0.757726C126.174 0.776668 127.33 0.757708 127.774 0.738766C128.217 0.719824 129.88 0.776687 130.435 0.776687C130.435 0.776687 130.435 0.776668 130.894 0.757726C131.322 0.738784 131.322 0.738766 131.322 0.738766C131.797 0.738766 132.557 0.719805 133.017 0.719805C133.476 0.719805 134.712 0.776687 134.87 0.776687C134.87 0.776687 134.87 0.776687 134.981 0.776687C136.232 0.719861 136.232 0.719805 136.232 0.719805C137.689 0.719805 139.178 0.738766 139.543 0.738766C139.907 0.738766 141.269 0.757763 141.839 0.795648C141.839 0.795648 141.839 0.795573 142.33 0.719805C142.552 0.681921 142.552 0.682 142.552 0.682C143.154 0.700942 143.803 0.738784 143.978 0.757726C144.152 0.776668 145.071 0.719805 145.324 0.719805C145.577 0.719805 146.354 0.757726 146.607 0.757726C146.607 0.757726 146.607 0.757708 146.718 0.738766C147.32 0.68194 147.32 0.682 147.32 0.682C147.906 0.719884 148.714 0.738784 149.125 0.757726C149.537 0.757726 150.709 0.738747 150.995 0.719805C151.28 0.700863 152.262 0.738766 152.42 0.738766C152.578 0.738766 153.101 0.700942 153.275 0.682C153.45 0.663058 154.067 0.700924 154.226 0.66304C154.226 0.66304 154.226 0.663058 154.701 0.682C155.239 0.700942 155.24 0.700845 155.24 0.700845C156.031 0.681903 157.093 0.663021 157.6 0.644079C158.106 0.625137 159.437 0.66304 159.675 0.66304C159.912 0.66304 160.831 0.663058 161.243 0.682C161.243 0.682 161.243 0.682 161.639 0.682C161.781 0.682 161.781 0.682 161.781 0.682C162.003 0.663058 162.225 0.663058 162.272 0.682C162.32 0.700942 162.747 0.757708 163.048 0.738766C163.365 0.719824 164.347 0.66304 164.601 0.66304C164.854 0.644098 166.644 0.644098 166.961 0.66304C167.277 0.66304 168.291 0.625119 168.687 0.625119C169.083 0.625119 170.414 0.625137 170.762 0.644079C171.111 0.663021 172.821 0.644079 173.708 0.644079C173.708 0.644079 173.708 0.644042 174.263 0.606158C174.754 0.568274 174.754 0.568353 174.754 0.568353C175.071 0.587295 175.435 0.625137 175.593 0.644079C175.752 0.663021 177.082 0.6251 177.763 0.606158C178.444 0.587216 180.551 0.587216 180.836 0.606158C181.121 0.6251 182.182 0.6251 182.578 0.606158C182.974 0.606158 184.368 0.587198 184.78 0.587198C185.192 0.587198 186.301 0.568334 186.522 0.549392C186.744 0.53045 187.394 0.587198 187.473 0.587198C187.473 0.587198 187.473 0.587198 187.52 0.587198C187.9 0.568256 188.249 0.549392 188.629 0.549392C188.962 0.549392 189.342 0.568353 189.659 0.568353C190.15 0.568353 190.15 0.568353 190.15 0.568353C190.704 0.568353 191.433 0.549392 191.781 0.549392C192.13 0.549392 192.953 0.587295 193.032 0.568353C193.032 0.568353 193.032 0.568334 193.143 0.549392C193.222 0.549392 193.222 0.549392 193.222 0.549392C193.365 0.549392 193.935 0.549411 194.474 0.568353C195.012 0.587295 197.42 0.549392 197.832 0.549392C197.832 0.549392 197.832 0.549411 198.164 0.568353C198.576 0.587295 198.576 0.587198 198.576 0.587198C198.909 0.568256 199.511 0.568353 199.891 0.568353C199.891 0.568353 199.891 0.568353 200.16 0.568353C200.651 0.549411 200.651 0.549392 200.651 0.549392C201.126 0.511508 201.76 0.492529 202.029 0.511471C202.298 0.530413 203.36 0.511471 203.708 0.511471C204.057 0.511471 204.769 0.511453 205.055 0.492511C205.34 0.492511 206.163 0.511471 206.417 0.511471C206.67 0.511471 207.415 0.511471 207.51 0.511471C207.605 0.530413 208.238 0.549374 208.682 0.530432C209.125 0.51149 211.723 0.530413 212.61 0.511471C213.497 0.492529 215.176 0.454705 215.509 0.454705C215.509 0.454705 215.509 0.454608 215.952 0.47355C216.807 0.492492 216.807 0.492511 216.807 0.492511C217.821 0.492511 218.977 0.492511 219.358 0.492511C219.358 0.492511 219.358 0.492492 219.738 0.47355C220.229 0.454608 220.229 0.454705 220.229 0.454705C220.878 0.454705 221.686 0.454608 222.003 0.47355C222.32 0.492492 223.444 0.47355 223.729 0.47355C223.729 0.47355 223.729 0.47355 223.983 0.47355C224.22 0.47355 224.22 0.47355 224.22 0.47355C224.474 0.47355 225.361 0.473647 226.184 0.454705C226.184 0.454705 226.184 0.454687 226.913 0.435745C227.531 0.416803 227.531 0.416784 227.531 0.416784C228.228 0.416784 228.845 0.397824 228.909 0.397824C228.972 0.397824 229.4 0.416784 229.78 0.416784C230.16 0.416784 231.38 0.435745 231.696 0.435745C232.013 0.454687 232.805 0.473647 232.916 0.454705C233.027 0.435763 233.581 0.416784 233.803 0.416784C234.041 0.416784 234.88 0.378863 235.355 0.378863C235.831 0.378863 237.747 0.378845 238.507 0.359903C239.268 0.359903 241.564 0.378863 241.913 0.378863C242.261 0.378863 243.259 0.341058 243.497 0.341058C243.734 0.341058 244.162 0.340961 244.321 0.359903C244.479 0.378845 245.572 0.341039 246.491 0.322097C246.491 0.322097 246.49 0.322116 247.33 0.341058C247.948 0.341058 247.948 0.341058 247.948 0.341058C248.455 0.322116 249.262 0.303155 249.753 0.322097C249.753 0.322097 249.754 0.322097 250.197 0.322097C250.656 0.322097 250.656 0.322097 250.656 0.322097C251.163 0.303155 251.844 0.303174 252.177 0.341058C252.51 0.36 253.951 0.284158 254.711 0.265216C254.711 0.265216 254.711 0.265253 255.345 0.303137C255.392 0.303137 255.63 0.303118 255.709 0.284176C255.82 0.265234 255.82 0.265216 255.82 0.265216C255.883 0.246274 256.153 0.227392 256.406 0.20845C256.659 0.189508 257.546 0.246255 257.879 0.246255C258.212 0.265197 259.447 0.246274 259.764 0.265216C260.081 0.265216 260.778 0.265216 261.031 0.265216C261.269 0.265216 262.378 0.284176 262.821 0.284176C263.265 0.284176 264.864 0.246274 265.371 0.265216C265.371 0.265216 265.371 0.265197 265.577 0.246255C266.226 0.189429 266.448 0.284158 266.844 0.265216C267.256 0.246274 267.256 0.246255 267.256 0.246255C267.652 0.208371 268.27 0.189471 268.618 0.170529C268.967 0.151587 270.297 0.170547 270.63 0.189489C270.978 0.189489 272.198 0.189489 272.531 0.189489C272.863 0.170547 274.051 0.20845 274.368 0.20845C274.685 0.227392 275.904 0.208431 276.538 0.189489C276.538 0.189489 276.538 0.189508 277.203 0.20845C277.663 0.227392 278.344 0.227355 278.708 0.170529L280.07 0.151568C281.496 0.208394 282.969 0.189452 284.363 0.151568C284.901 0.132626 285.392 0.227336 285.931 0.151568C286.089 0.132626 286.992 0.132626 287.546 0.151568C287.863 0.151568 287.863 0.151568 287.863 0.151568C288.196 0.17051 288.592 0.170529 288.75 0.170529C288.909 0.170529 289.305 0.15155 289.621 0.132608C289.938 0.113666 290.809 0.189489 291.094 0.189489C291.395 0.189489 292.108 0.151568 292.251 0.151568C292.393 0.151568 293.043 0.189508 293.359 0.20845C293.359 0.20845 293.359 0.20845 293.66 0.20845C293.961 0.20845 294.246 0.189471 294.563 0.170529C295.086 0.151587 295.086 0.151568 295.086 0.151568C295.625 0.17051 296.195 0.189489 296.353 0.189489C296.511 0.189489 296.908 0.170529 297.098 0.170529C297.288 0.151587 297.969 0.189489 298.127 0.189489C298.127 0.189489 298.127 0.189489 298.254 0.189489C298.428 0.170547 298.571 0.151568 298.713 0.151568C299.077 0.151568 299.442 0.189471 299.79 0.170529C300.234 0.170529 300.662 0.132608 301.121 0.132608C301.517 0.132608 301.517 0.132608 301.517 0.132608C301.945 0.132608 302.594 0.132589 302.926 0.113647C302.926 0.113647 302.927 0.113666 303.275 0.132608C303.497 0.15155 303.497 0.151568 303.497 0.151568C303.877 0.151568 304.653 0.170529 305.192 0.170529C305.73 0.170529 307.409 0.132626 307.773 0.151568C308.138 0.17051 310.149 0.151587 311.432 0.170529C311.432 0.170529 311.432 0.170473 312.636 0.113647C312.984 0.0947054 313.555 0.0947054 313.887 0.113647C314.473 0.132589 314.473 0.132608 314.473 0.132608C315.028 0.113666 315.741 0.0758235 316.073 0.0568815C316.073 0.0568815 316.073 0.0568815 316.374 0.0568815C316.675 0.0568815 316.976 0.0758605 317.261 0.0948025C317.42 0.0948025 317.42 0.0948025 317.42 0.0948025C317.578 0.113745 318.544 0.132608 319.59 0.132608C320.635 0.132608 323.248 0.0568815 323.312 0.0568815C323.375 0.0568815 323.502 0.075842 323.597 0.075842C323.692 0.075842 324.5 0.0758235 324.959 0.0568815C325.434 0.0568815 327.034 0.037921 327.478 0.037921C327.921 0.037921 329.331 0.0947054 329.695 0.113647C330.059 0.132589 331.2 0.0947054 331.485 0.113647C331.77 0.132589 333.053 0.056863 333.623 0.037921C333.623 0.037921 333.623 0.0379765 334.273 0.0948025C334.558 0.113745 334.558 0.113647 334.558 0.113647C335.413 0.0947054 336.76 0.0758235 337.552 0.0568815C337.552 0.0568815 337.552 0.0568815 338.264 0.0568815C339.009 0.0568815 339.009 0.0568815 339.009 0.0568815C339.801 0.0758235 340.878 0.0568445 341.4 0.0189605C341.4 0.0189605 341.401 0.019016 342.082 0.075842C342.62 0.113726 343.222 5.54954e-05 343.935 0.0568815C344.537 0.113708 345.044 0.094747 345.566 0.037921C345.598 0.037921 345.709 0.037921 345.772 0.037921C346.263 0.056863 346.263 0.0568815 346.263 0.0568815C346.802 0.0568815 347.404 0.075842 347.61 0.075842C347.816 0.075842 348.782 0.037921 349.241 0.037921C349.241 0.037921 349.241 0.037921 349.637 0.037921C350.461 0.037921 350.461 0.037921 350.461 0.037921C351.363 0.037921 352.853 0.0379025 353.787 0.0189605C353.787 0.0189605 353.787 0.0189605 354.642 0.0189605C355.181 0.0189605 355.181 0.0189605 355.181 0.0189605C355.767 0.0379025 356.48 0.0568815 356.781 0.0568815C357.081 0.0568815 357.81 0.037921 358.032 0.037921C358.27 0.037921 358.998 0.0569 359.204 0.075842C359.204 0.075842 359.204 0.075842 359.236 0.075842C359.679 7.39939e-05 359.679 0 359.679 0C360.154 0.113652 361.628 0.132626 361.865 0.151568Z" fill="white" fill-opacity="0.5"/>
</svg>
