<svg width="648" height="20" viewBox="0 0 648 20" fill="none" xmlns="http://www.w3.org/2000/svg">
<path opacity="0.8" d="M53.1245 8.4878C53.9216 8.48353 53.9665 8.49421 53.3939 8.54974C52.7877 8.60742 52.7989 8.61596 53.4613 8.61382C53.8767 8.61169 55.1679 8.62237 56.3243 8.63945C58.233 8.66509 58.4575 8.65441 58.6933 8.51984C58.8842 8.40663 59.1424 8.38313 59.8048 8.41945C60.2764 8.44508 62.8811 8.46003 65.5869 8.45149C68.2927 8.44294 71.8181 8.44935 73.4237 8.46644C76.7245 8.50061 79.1946 8.4344 79.1721 8.31051C79.1497 8.20157 75.6355 8.04778 73.3114 8.05632C71.021 8.06273 68.2254 7.95593 68.5734 7.87476C68.7306 7.83845 69.2134 7.83845 69.7747 7.87689C70.7515 7.94311 72.3683 7.9602 79.1272 7.97729L83.1129 7.98797L81.1594 7.87689C79.8458 7.80213 78.8353 7.68252 78.1055 7.51164C76.8705 7.22754 76.1632 7.1891 72.3795 7.20832C70.9312 7.21687 68.6633 7.19978 67.3384 7.17201C64.5765 7.11434 63.2067 7.16346 64.0039 7.28735C64.2846 7.33221 64.4642 7.40697 64.3968 7.4561C64.3182 7.51377 64.8347 7.54795 65.9238 7.55649C66.8332 7.5629 67.7651 7.5928 68.0121 7.62484C68.2815 7.65902 67.1812 7.67184 65.2726 7.65902C62.8025 7.64193 62.0054 7.65688 61.691 7.72951C61.4328 7.78932 61.3317 7.73592 61.3991 7.57144C61.4552 7.42192 61.2307 7.28522 60.8377 7.23395C60.3662 7.17201 60.2314 7.04385 60.3774 6.77684C60.557 6.43295 61.0174 6.20439 61.0511 6.44149C61.0735 6.55256 61.8707 6.59315 64.0488 6.59315C65.6543 6.59315 66.3504 6.64228 66.0023 6.72558C65.8564 6.75976 65.9911 6.78539 66.2943 6.78539C66.5974 6.78325 66.7209 6.82597 66.5862 6.88151C66.3953 6.95413 66.676 6.97763 67.6528 6.97336C68.3826 6.96909 69.6176 6.99258 70.4147 7.02676C71.2119 7.06094 72.7725 7.07375 73.8952 7.05666L75.9274 7.02462L74.4229 6.91996C72.8174 6.80888 71.4926 6.53334 71.7283 6.35605C71.8968 6.22361 73.1879 6.16381 76.354 6.14458C77.6901 6.13604 78.9364 6.09545 79.1048 6.05273C79.3967 5.98224 85.0665 5.96943 91.5672 6.02496C92.7573 6.03564 93.3636 6.01001 93.532 5.9438C93.6667 5.8904 93.5095 5.84981 93.1727 5.85195C92.3531 5.85622 88.2776 5.51659 86.2903 5.2795C84.595 5.07657 82.8323 4.68782 82.8098 4.50839C82.7986 4.42936 83.068 4.41013 83.8539 4.43363C84.4378 4.45285 85.4931 4.46354 86.2005 4.45926C87.1773 4.45499 87.4916 4.48489 87.5141 4.58315C87.5253 4.65364 87.7498 4.71131 88.0193 4.71131C88.5245 4.70918 88.6705 4.66005 89.0972 4.35887C89.2431 4.25421 89.6136 4.18371 89.928 4.19653C90.6353 4.2243 90.7588 4.43577 90.1413 4.55752C89.8382 4.61733 89.8494 4.66005 90.1637 4.68782C90.4332 4.71131 90.7813 4.77753 90.9497 4.83734C91.1293 4.90142 91.8816 4.95055 92.8134 4.95695C93.6667 4.96336 94.2955 4.9954 94.2169 5.02744C93.9586 5.12784 95.261 5.18978 97.4504 5.1791C98.9885 5.17269 99.3702 5.18765 98.865 5.23678C98.27 5.29445 98.2812 5.30299 98.9773 5.30085C99.4152 5.29872 100.291 5.36921 100.908 5.45465C101.56 5.5465 102.795 5.62553 103.85 5.64262C106.017 5.67893 105.804 5.55504 103.614 5.50164C102.84 5.48242 102.087 5.44183 101.941 5.41193C101.593 5.3393 104.378 5.45679 106.208 5.59349C106.994 5.65116 108.745 5.70883 110.104 5.72165C111.462 5.73447 113.629 5.75369 114.92 5.76437C116.829 5.78146 117.267 5.76651 117.256 5.68534C117.233 5.5764 119.793 5.52514 120.264 5.62766C120.41 5.6597 122.016 5.69602 123.824 5.71097C125.631 5.72592 127.124 5.76864 127.124 5.80282C127.136 5.83913 126.709 5.85622 126.193 5.83913C125.676 5.82418 125.126 5.83913 124.98 5.87331C124.823 5.90962 123.767 5.92457 122.521 5.90535C120.949 5.88399 120.467 5.89467 120.815 5.94166C121.354 6.01642 132.356 6.08477 132.895 6.01642C133.075 5.99292 135.085 5.98438 137.353 5.99933C139.621 6.01215 142.102 6.00147 142.877 5.9737C143.651 5.94593 144.482 5.92885 144.74 5.93739C144.998 5.94593 147.525 5.95234 150.376 5.9502C153.217 5.9502 156.967 5.95448 158.696 5.96302C161.48 5.97584 161.907 5.96302 162.311 5.84768C162.693 5.74301 162.581 5.70029 161.716 5.62339C161.132 5.56999 160.268 5.52941 159.796 5.53368C159.257 5.53582 159.055 5.51018 159.257 5.46105C159.482 5.40765 159.325 5.39911 158.797 5.42902C158.359 5.45465 156.81 5.4397 155.328 5.39484C153.857 5.34998 151.028 5.32221 149.052 5.33503C146.424 5.34998 145.38 5.33076 145.189 5.26668C145.043 5.21755 143.954 5.16415 142.775 5.14706C141.585 5.12997 140.62 5.08512 140.609 5.0488C140.597 5.00822 141.305 4.99327 142.36 5.00822C143.326 5.02317 146.548 5.03385 149.523 5.03172C152.487 5.03172 154.284 5.0189 153.509 5.00608C152.734 4.99327 151.151 4.94414 149.995 4.89928C148.704 4.84802 147.222 4.8352 146.132 4.86511C145.167 4.89287 144.123 4.89715 143.82 4.87151C142.921 4.80103 145.751 4.6515 147.469 4.67714C148.434 4.69209 148.995 4.67286 148.984 4.62801C148.973 4.58742 148.659 4.55538 148.266 4.55752C147.076 4.56393 147.367 4.30333 148.58 4.28838C149.377 4.2777 149.433 4.26916 148.805 4.24993C148.355 4.23711 147.974 4.19867 147.974 4.16877C147.974 4.13672 147.008 4.05983 145.829 3.99361C143.258 3.85263 143.067 3.77787 145.38 3.82487C146.312 3.84409 152.543 3.82914 159.212 3.79069C166.016 3.75224 171.473 3.74797 171.619 3.78001C171.765 3.81205 170.777 3.84836 169.407 3.85904L166.914 3.8804L169.272 3.92739C170.563 3.95303 171.944 3.99147 172.337 4.01283C172.73 4.03419 175.582 4.07478 178.692 4.10041C181.791 4.12818 185.922 4.1709 187.854 4.1944C189.796 4.22003 192.962 4.22857 194.893 4.21576C198.183 4.19226 198.295 4.18585 196.645 4.13245C195.645 4.10041 194.871 4.03419 194.859 3.98079C194.848 3.90176 195.544 3.88894 198.957 3.9039C208.265 3.94235 218.549 3.91244 218.078 3.8505C217.303 3.7501 209.927 3.57495 205.593 3.55359C203.392 3.54291 199.901 3.50233 197.835 3.4596C195.769 3.41902 192.794 3.36135 191.244 3.33144C189.695 3.30154 186.405 3.23746 183.946 3.18406C174.122 2.97687 170.193 2.9256 168.06 2.97473C165.5 3.0324 165.23 3.03454 156.237 3.0858C152.498 3.10716 146.907 3.10716 143.808 3.08793C136.802 3.04308 132.188 3.03667 120.568 3.06017C115.538 3.07085 109.464 3.07085 107.072 3.0623C102.514 3.04522 101.313 3.12211 104.512 3.22891L106.286 3.28659L104.737 3.30367C103.884 3.31222 102.795 3.29513 102.312 3.26096C100.908 3.16483 93.5208 3.05803 87.9969 3.05162C82.8996 3.04735 81.7207 3.02172 83.1803 2.94696C83.5957 2.9256 84.3143 2.88929 84.7634 2.86366C85.6166 2.81666 88.7715 2.79957 105.983 2.74831C118.12 2.712 123.554 2.70772 148.21 2.70772C153.296 2.70772 155.9 2.68209 156.866 2.62442C157.989 2.55607 158.112 2.5283 157.551 2.47917C157.046 2.43431 157.236 2.42577 158.269 2.4514C159.044 2.47063 168.655 2.4514 179.613 2.40655C190.571 2.36169 201.708 2.32538 204.358 2.32538C207.008 2.32538 209.163 2.29975 209.163 2.27198C209.163 2.24421 210.398 2.22926 211.925 2.23994C213.452 2.25062 215.619 2.24848 216.73 2.23353C217.853 2.21857 220.974 2.19508 223.68 2.18013C226.386 2.16731 228.441 2.13527 228.25 2.10964C228.059 2.08401 228.126 2.0242 228.407 1.97507C228.98 1.87254 229.092 1.87041 230.563 1.9174C231.798 1.95584 232.011 2.06265 230.866 2.06906C230.439 2.07119 230.215 2.09042 230.383 2.11178C230.551 2.13314 233.908 2.14381 237.86 2.13741C241.801 2.12886 247.673 2.13741 250.907 2.15663C254.14 2.17585 259.63 2.19935 263.122 2.21217C270.903 2.23994 280.48 2.28266 289.181 2.32751C292.796 2.34674 301.666 2.34033 308.885 2.31683C316.104 2.2912 322.65 2.29548 323.436 2.32324C325.648 2.40441 347.137 2.33179 347.126 2.24421C347.115 2.19508 347.698 2.1844 348.877 2.2079C351.392 2.25916 377.608 2.14168 377.597 2.07974C377.597 2.05197 376.53 2.03702 375.239 2.04556C373.948 2.05624 372.657 2.03274 372.376 1.99643C372.006 1.9473 373.106 1.9238 376.238 1.91312C381.01 1.89604 383.278 1.97934 380.415 2.06692C378.854 2.11391 378.888 2.11605 380.976 2.11391C382.189 2.11177 383.693 2.07973 384.333 2.04129C384.973 2.00284 385.568 1.99643 385.647 2.02634C385.804 2.07974 388.948 2.10964 398.255 2.14809C402.084 2.16304 403.353 2.14809 403.914 2.0776C404.857 1.96012 405.306 1.96012 405.003 2.0776C404.801 2.15663 406.025 2.16304 412.649 2.11605C421.642 2.0541 420.834 1.97934 411.616 2.01992C407.507 2.03701 405.744 2.0242 406.216 1.97934C406.609 1.9409 411.302 1.88963 417.23 1.86186C430.052 1.79778 453.595 1.59272 456.211 1.52437C457.604 1.48806 458.086 1.44747 457.896 1.38553C457.705 1.31931 458.109 1.29368 459.546 1.28727C461.028 1.27873 461.398 1.29795 461.208 1.37271C461.005 1.45174 461.668 1.46456 465.104 1.4432C467.383 1.42825 470.201 1.4432 471.368 1.47524C472.536 1.50728 474.119 1.54146 474.905 1.55C475.68 1.56068 473.625 1.57777 470.335 1.58631C465.306 1.60126 464.441 1.61835 464.901 1.69098C465.351 1.76147 468.27 1.75933 480.732 1.68244C489.141 1.63117 496.967 1.55855 498.123 1.52224C499.92 1.4667 514.291 1.30223 525.608 1.20824C527.461 1.19329 529.122 1.15697 529.313 1.13134C529.706 1.07367 525.125 1.08221 518.714 1.14843C510.339 1.23601 497.169 1.26164 499.246 1.18474C500.627 1.13348 500.616 1.13348 498.909 1.13561C497.955 1.13775 497.034 1.17192 496.866 1.21251C496.697 1.25309 496.417 1.26164 496.26 1.2296C495.9 1.16338 490.747 1.03949 489.939 1.08008C489.624 1.09503 488.007 1.12921 486.335 1.15697C483.932 1.19756 483.584 1.19115 484.684 1.13561C486.222 1.05658 488.108 1.03308 512.786 0.791714C522.06 0.702 529.964 0.612288 530.357 0.5952C530.739 0.578112 523.464 0.605879 514.179 0.655008C504.894 0.706272 496.237 0.731905 494.946 0.712681C492.072 0.66996 535.612 0.35383 547.445 0.33247C552.374 0.323925 555.406 0.341015 554.721 0.373055C554.081 0.40296 553.025 0.426456 552.385 0.42432C549.466 0.409369 535.387 0.537527 535.679 0.575975C535.859 0.599472 543.965 0.580248 553.699 0.533257C563.433 0.486263 574.694 0.445679 578.736 0.445679C582.767 0.445679 589.627 0.394415 593.972 0.33247C603.684 0.195765 620.356 0.22994 619.694 0.38587C619.548 0.422182 619.683 0.49267 619.997 0.5418C620.469 0.61656 620.401 0.63365 619.615 0.637922C619.088 0.640059 618.1 0.618698 617.437 0.586657C616.124 0.524712 616.079 0.53112 616.539 0.682777C616.719 0.742586 617.448 0.785305 618.313 0.785305C619.671 0.785305 619.638 0.789579 617.92 0.840843C615.82 0.902788 616.067 0.919876 620.626 1.05445C624.342 1.16338 625.869 1.283 624.847 1.38339C624.275 1.43893 624.275 1.46243 624.87 1.55855C625.498 1.65894 625.476 1.66535 624.612 1.62476C620.491 1.42825 613.058 1.25096 613.07 1.34921C613.07 1.37057 613.979 1.4133 615.079 1.44534C617.785 1.52437 619.211 1.62049 619.234 1.72516C619.245 1.77428 619.75 1.80846 620.39 1.80419C621.019 1.79992 622.13 1.82768 622.86 1.864C624.174 1.93021 626.981 1.9708 629.945 1.96866C631.168 1.96866 631.415 1.99002 631.224 2.08187C631.034 2.17372 631.258 2.19508 632.392 2.18867C633.167 2.1844 633.964 2.2143 634.155 2.25489C634.391 2.30402 634.256 2.31684 633.762 2.29334C633.358 2.27411 631.494 2.24634 629.619 2.23139C627.003 2.21003 626.296 2.22285 626.576 2.28052C626.778 2.32324 627.328 2.37451 627.8 2.39587C628.53 2.43004 628.575 2.45354 628.07 2.55393C627.508 2.66714 627.25 2.66714 622.591 2.54325C618.504 2.43431 617.055 2.42577 613.732 2.48131C610.263 2.54111 609.904 2.5582 610.937 2.61588C611.992 2.67569 611.812 2.68423 609.421 2.70132C606.771 2.72054 606.726 2.72482 607.041 2.88074C607.467 3.09648 607.018 3.0858 604.818 2.82948C603.032 2.62015 602.022 2.56248 602.033 2.66928C602.033 2.69705 600.776 2.71627 599.226 2.712C596.24 2.70345 595.286 2.81025 597.958 2.85511C598.8 2.86793 601.337 2.93842 603.616 3.0089C606.917 3.11143 607.748 3.16056 607.759 3.25882C607.77 3.33999 608.017 3.36562 608.478 3.33785C608.859 3.31436 609.185 3.32504 609.185 3.35921C609.185 3.39339 607.636 3.43184 605.682 3.44252C603.751 3.4532 602.168 3.48524 602.179 3.51514C602.19 3.58563 606.883 3.74369 610.813 3.8035C613.732 3.84836 617.482 3.98506 618.324 4.07905C618.504 4.10041 617.796 4.12177 616.73 4.12818C615.674 4.13459 614.731 4.1709 614.642 4.20935C614.484 4.2777 618.246 4.49557 620.76 4.56393C621.468 4.58315 622.063 4.62587 622.063 4.65791C622.063 4.68995 622.478 4.71345 622.972 4.71131C623.466 4.70918 624.196 4.74763 624.6 4.79889C624.993 4.85015 625.847 4.8886 626.498 4.88647C627.149 4.8822 627.823 4.90996 628.002 4.94841C628.182 4.98686 629.001 5.0723 629.821 5.13852C630.663 5.20687 630.899 5.24532 630.371 5.22823C625.24 5.05735 619.076 5.04026 613.541 5.17697C611.621 5.22396 610.892 5.22396 611.105 5.17269C611.296 5.12784 610.858 5.10434 609.915 5.11075C608.646 5.11716 608.511 5.13425 609.017 5.21328C609.533 5.29445 609.118 5.30513 605.772 5.29872C602.875 5.29231 601.977 5.3094 602.134 5.36921C602.246 5.41193 602.572 5.44611 602.842 5.44397C603.122 5.44183 603.515 5.46106 603.706 5.48882C603.908 5.51446 603.661 5.53795 603.167 5.54222C602.347 5.54863 602.37 5.56145 603.392 5.67039C604.009 5.7366 604.896 5.79 605.345 5.78787C605.806 5.78573 606.895 5.82204 607.77 5.86904L609.365 5.95448L606.67 5.97156C605.188 5.98224 603.998 6.01215 604.043 6.03778C604.279 6.21721 603.942 6.24925 602.134 6.21934C601.045 6.20225 600.259 6.21507 600.259 6.24925C600.27 6.28556 599.294 6.29838 597.913 6.28342C596.15 6.26206 595.566 6.27701 595.577 6.33896C595.589 6.38595 595.33 6.41159 595.005 6.40091C594.679 6.38809 592.4 6.37314 589.941 6.36886C587.482 6.36459 583.957 6.33896 582.116 6.31333C579.477 6.27702 578.5 6.28769 577.546 6.36246C576.356 6.45644 576.378 6.45858 578.815 6.47994C580.185 6.49275 583.519 6.55043 586.236 6.6081C588.953 6.66577 592.041 6.70849 593.096 6.70209C594.151 6.69568 596.06 6.72985 597.329 6.77471C598.609 6.8217 600.113 6.85588 600.675 6.85374C602.134 6.84733 604.121 6.96908 604.133 7.06948C604.155 7.20832 603.425 7.23182 600.798 7.17201C599.406 7.13997 597.789 7.12074 597.183 7.12715C596.588 7.13356 595.723 7.11434 595.274 7.08443C594.825 7.05453 593.096 7.01822 591.423 7.0054C589.762 6.99258 587.46 6.95841 586.315 6.93064C584.911 6.89646 584.081 6.90287 583.755 6.94986C583.497 6.98831 582.744 7.02035 582.082 7.02035C580.959 7.02035 580.982 7.01608 582.284 6.96695C584.575 6.88151 575.907 6.7918 568.508 6.8217C564.971 6.83665 561.985 6.83238 561.85 6.81102C561.435 6.74694 557.617 6.72131 557.617 6.78325C557.617 6.81529 558.033 6.83879 558.538 6.83665C559.043 6.83452 559.582 6.86015 559.751 6.89433C559.919 6.9285 561.671 6.94986 563.658 6.93918C567.273 6.91996 574.807 7.06948 576.345 7.1891C576.962 7.23823 576.581 7.24677 574.818 7.22754C573.527 7.21259 572.101 7.1891 571.641 7.17414C571.191 7.15919 570.821 7.17628 570.821 7.21259C570.832 7.2959 576.412 7.34716 578.242 7.28094C579.848 7.22327 583.508 7.31726 583.519 7.41765C583.53 7.45396 583.744 7.46464 584.002 7.43901C584.26 7.41552 585.866 7.40697 587.572 7.42406C589.268 7.43901 590.413 7.47532 590.121 7.50309C589.818 7.53086 588.605 7.53513 587.415 7.5095C586.225 7.486 585.181 7.47746 585.091 7.49027C584.833 7.52872 596.857 7.85554 598.227 7.84913C599.507 7.84058 600.72 7.89398 602.864 8.05205C603.594 8.10545 603.773 8.14176 603.336 8.1439C602.943 8.14603 602.269 8.21011 601.842 8.28274C601.416 8.3575 600.686 8.41944 600.237 8.42372C598.856 8.4344 600.54 8.52838 602.842 8.56683C603.942 8.58605 604.84 8.62664 604.851 8.66081C604.851 8.69285 606.142 8.71208 607.703 8.70354C609.264 8.69499 610.431 8.71422 610.297 8.74626C609.948 8.82742 612.643 8.86374 619.424 8.86801C622.647 8.87014 626.565 8.89364 628.114 8.91927C629.664 8.94704 631.471 8.97267 632.134 8.97908C632.796 8.98549 633.638 9.01539 634.02 9.0453C634.503 9.08588 633.807 9.11792 631.674 9.15851C629.406 9.19909 628.9 9.22472 629.686 9.2589C631.741 9.34434 630.248 9.41269 626.195 9.41483C623.343 9.41697 621.737 9.44687 620.94 9.51309C620.3 9.56649 619.997 9.60921 620.267 9.60707C620.536 9.60707 620.761 9.66047 620.772 9.72669C620.783 9.82922 620.525 9.84417 619.009 9.82495C617.853 9.80999 617.235 9.82708 617.235 9.87621C617.246 9.92107 618.156 9.94456 619.559 9.93602C621.603 9.92534 621.894 9.94029 622.04 10.0685C622.209 10.2094 622.366 10.2137 628.912 10.1945C633.099 10.1817 635.513 10.1987 635.345 10.2393C635.199 10.2756 634.559 10.3077 633.93 10.3098C633.302 10.3141 632.785 10.344 632.796 10.3782C632.819 10.4871 634.368 10.5469 637.04 10.5427C638.455 10.5405 640.251 10.5533 641.037 10.5726L642.452 10.6046L640.824 10.6922L639.196 10.7797L640.341 10.8566C641.251 10.9186 641.98 10.9143 643.99 10.8417C646.494 10.7498 647.875 10.7904 647.897 10.957C647.92 11.1087 642.688 11.3351 636.939 11.4312C632.763 11.5017 628.777 11.7217 630.427 11.7901C630.944 11.8114 632.089 11.8734 632.953 11.9268C634.312 12.0101 634.413 12.0315 633.683 12.0763C633.212 12.1041 632.235 12.134 631.505 12.1404C630.663 12.1489 630.259 12.181 630.394 12.2322C630.551 12.2899 631.876 12.3027 635.019 12.2814C637.579 12.2621 639.566 12.2771 639.746 12.3155C640.139 12.3946 636.715 12.668 634.514 12.7321C633.65 12.7577 632.111 12.8325 631.101 12.8987C629.552 12.9991 629.394 13.0268 630.068 13.076C631.561 13.1828 630.989 13.2703 629.013 13.234C626.913 13.1977 626.329 13.3152 628.328 13.3729C629.608 13.4092 629.72 13.4412 629.091 13.5865C628.811 13.6527 628.934 13.7061 629.473 13.7574C629.911 13.7979 630.147 13.8513 630.001 13.8727C629.765 13.9069 622.647 14.0415 615.54 14.144C611.666 14.1995 607.568 14.3149 607.321 14.3725C607.187 14.4046 606.681 14.4323 606.199 14.4345C605.031 14.4409 604.593 14.5562 605.312 14.6694C605.66 14.725 606.726 14.757 607.984 14.7485C610.431 14.7335 610.633 14.883 608.231 14.93C606.288 14.9685 606.333 15.0817 608.287 15.0774L609.814 15.0732L608.635 15.1565C607.894 15.2077 607.523 15.2803 607.647 15.3508C607.793 15.4405 608.343 15.4619 610.263 15.4555L612.688 15.447L610.476 15.5623C608.365 15.6734 607.389 15.8015 609.095 15.746C609.544 15.731 611.52 15.6947 613.485 15.6627C616.674 15.6136 617.055 15.62 617.011 15.7204C616.966 15.8186 617.347 15.8272 619.862 15.7951C621.457 15.7738 623.04 15.778 623.376 15.8058C624.409 15.887 621.165 15.9895 615.697 16.0514C611.722 16.0963 610.667 16.1262 610.678 16.201C610.689 16.2629 610.195 16.2971 609.252 16.3035C608.062 16.3099 607.86 16.3313 608.118 16.4317C608.354 16.5278 608.029 16.5769 606.58 16.6666C605.57 16.7286 604.537 16.8332 604.29 16.8994C603.874 17.0105 602.684 17.0233 586.573 17.1109C576.468 17.1643 567.947 17.1814 566.016 17.1494C562.659 17.096 550.331 17.1152 549.556 17.175C549.32 17.1942 547.659 17.2241 545.851 17.2412C544.044 17.2604 542.045 17.2903 541.405 17.3096C540.765 17.3288 538.542 17.3245 536.476 17.2989C534.41 17.2733 529.336 17.2476 525.204 17.2412C521.072 17.2348 516.637 17.2156 515.346 17.1985C511.394 17.1451 509.328 17.1472 492.824 17.2028C484.055 17.2327 475.815 17.2476 474.523 17.2369C473.232 17.2263 468.809 17.2199 464.699 17.2241C460.556 17.2284 456.952 17.2028 456.616 17.1686C456.279 17.1323 455.774 17.1259 455.482 17.1536C454.46 17.2476 441.56 17.3395 429.962 17.3331C415.636 17.3245 410.516 17.3288 396.65 17.3587C389.644 17.3736 383.772 17.348 379.887 17.2882C376.609 17.2369 373.095 17.2006 372.073 17.207C371.063 17.2134 368.447 17.1857 366.268 17.1451C364.09 17.1045 360.206 17.0682 357.635 17.0639C352.099 17.0532 349.135 17.0297 347.609 16.9892C346.924 16.9699 346.183 16.9998 345.677 17.0661C344.847 17.1771 342.163 17.1622 342.635 17.049C342.758 17.0191 342.646 16.9763 342.388 16.955C342.118 16.9336 341.916 16.9635 341.916 17.0191C341.927 17.1237 340.951 17.1622 340.322 17.081C340.12 17.0554 339.502 17.034 338.941 17.034C337.493 17.034 332.732 16.9892 326.041 16.908C322.324 16.8631 320.068 16.8631 319.708 16.9037C318.979 16.987 315.049 16.9849 312.332 16.8994C311.164 16.8631 308.997 16.8247 307.504 16.814C305.236 16.7991 304.81 16.8119 304.821 16.8994C304.832 16.9571 304.63 17.0041 304.372 17.0062C304.114 17.0084 303.9 16.9763 303.889 16.9358C303.878 16.8952 303.507 16.8802 303.058 16.8994C301.127 16.987 300.846 16.9892 300.947 16.9101C301.082 16.8076 300.251 16.8076 300.027 16.9101C299.892 16.9678 298.971 16.9721 296.198 16.9272C292.617 16.8674 290.674 16.8973 293.537 16.9678C294.334 16.987 294.986 17.0319 294.997 17.0639C295.008 17.1387 288.867 17.1024 288.204 17.0233C287.957 16.9934 287.171 16.9721 286.453 16.9763C285.487 16.9828 285.229 17.0084 285.442 17.0789C285.599 17.1323 285.498 17.1771 285.207 17.1771C284.926 17.1793 284.69 17.2028 284.69 17.2327C284.701 17.2861 287.553 17.4313 288.047 17.4035C288.204 17.395 288.653 17.4228 289.069 17.4676C289.888 17.5552 293.616 17.5744 305.854 17.5488C317.934 17.5253 337.156 17.5787 343.881 17.6556C355.355 17.788 363.462 17.8414 389.453 17.9546C392.687 17.9696 398.918 17.9867 403.308 17.9952C407.698 18.0038 412.436 18.0486 413.839 18.0956C415.243 18.1426 419.262 18.196 422.776 18.2131C431.444 18.258 440.594 18.3284 448.835 18.4117C449.834 18.4224 450.463 18.4053 450.238 18.3776C449.733 18.3135 444.344 18.2409 436.53 18.1939C429.894 18.1533 426.425 18.0422 432.421 18.0636C434.486 18.07 437.866 18.0935 439.943 18.1148C442.009 18.1362 447.084 18.1832 451.226 18.2174C455.358 18.2537 459.164 18.2857 459.681 18.2921C460.197 18.2964 462.106 18.3135 463.913 18.3263C465.721 18.3413 468.056 18.3754 469.089 18.4032C470.897 18.4523 482.45 18.5527 489.299 18.5784C495.373 18.6019 498.662 18.6254 504.096 18.6852C513.685 18.7898 517.064 18.792 517.76 18.6937C518.647 18.5698 519.972 18.542 520.803 18.6296C521.33 18.6852 521.634 18.6852 522.027 18.6275C522.352 18.5784 522.745 18.572 523.093 18.6083C523.396 18.6403 529.111 18.6531 535.803 18.6382C550.005 18.6061 549.758 18.6061 552.206 18.6852C553.239 18.7193 557.472 18.7621 561.603 18.7791C574.144 18.8325 575.301 18.8432 574.29 18.8988C573.661 18.9329 574.346 18.9586 576.435 18.9778C578.86 18.9992 580.286 18.9735 583.16 18.8496C585.17 18.7642 586.932 18.7087 587.089 18.7279C587.247 18.7471 586.899 18.7834 586.337 18.8069C584.631 18.8795 585.203 18.9607 587.078 18.9137C589.009 18.8646 593.354 18.651 593.714 18.5869C594.084 18.5207 598.003 18.4288 597.733 18.4929C597.419 18.5677 602.224 18.4822 602.808 18.4032C603.526 18.3049 604.593 18.3263 604.312 18.4352C604.133 18.5057 604.38 18.5314 605.188 18.5271C607.49 18.5143 610.97 18.3519 612.452 18.1896C613.945 18.0251 616.472 17.944 615.922 18.0764C615.764 18.1127 616.09 18.1405 616.64 18.1383C617.19 18.1362 617.493 18.1042 617.336 18.07C616.887 17.9739 619.885 17.976 622.546 18.0721C623.826 18.1191 625.498 18.1533 626.273 18.1512C627.474 18.149 623.736 18.3242 619.155 18.4865C618.571 18.5079 618.212 18.5506 618.369 18.5826C618.526 18.6147 619.267 18.6211 620.031 18.5954C620.828 18.5677 621.423 18.5762 621.423 18.6147C621.434 18.6958 619.851 18.7663 617.808 18.7791C616.966 18.7834 616.292 18.8176 616.292 18.8539C616.303 18.8902 615.618 18.9223 614.776 18.9287C613.934 18.9329 612.935 18.9693 612.565 19.0056C612.082 19.0526 612.935 19.0675 615.349 19.0547C619.447 19.0333 619.559 19.0696 615.641 19.1487C614.103 19.1807 612.419 19.2192 611.902 19.2363C611.386 19.2533 610.072 19.2747 608.972 19.2832C607.871 19.2918 606.984 19.3302 606.996 19.3666C607.007 19.4029 607.265 19.4285 607.591 19.42C607.916 19.4114 608.815 19.4071 609.589 19.4093C610.97 19.4135 610.97 19.4157 609.892 19.4819C609.286 19.5203 608.017 19.5524 607.086 19.5567C606.154 19.5609 605.076 19.5695 604.683 19.578C604.032 19.5908 589.133 19.6336 569.968 19.6763C565.454 19.687 556.697 19.7062 550.499 19.7211C544.302 19.7361 535.758 19.7361 531.491 19.7233C527.225 19.7105 521.319 19.7019 518.344 19.7062C508.756 19.7211 499.886 19.6677 498.415 19.5908C497.775 19.5567 498.258 19.5481 499.785 19.5673C503.299 19.6101 506.095 19.5823 506.645 19.5011C506.993 19.4499 506.218 19.4221 503.917 19.405C502.143 19.3922 498.819 19.3495 496.518 19.311C494.227 19.2726 490.522 19.2213 488.288 19.1999C486.054 19.1786 482.641 19.1423 480.71 19.1188C478.767 19.0974 473.064 19.0547 468.023 19.0269C462.982 18.9992 458.12 18.9671 457.222 18.9564C456.312 18.9458 454.415 18.9265 452.989 18.9116C451.563 18.8966 449.733 18.8347 448.914 18.7749C446.803 18.6211 438.057 18.4438 433.914 18.4737C432.623 18.4822 430.512 18.478 429.221 18.463C427.93 18.4481 426.234 18.431 425.46 18.4267C424.685 18.4203 421.092 18.3861 417.466 18.3477C409.651 18.2686 401.298 18.2131 395.157 18.2024C387.017 18.1875 379.899 18.1405 375.902 18.0785C374.218 18.0529 370.209 18.0358 366.976 18.0401C363.754 18.0465 358.252 18.023 354.772 17.991C351.291 17.9589 347.9 17.9376 347.26 17.944C342.579 17.9931 335.068 17.9845 335.056 17.929C335.045 17.8927 336.044 17.8542 337.268 17.8436L339.491 17.8222L336.673 17.7859C335.124 17.7667 330.363 17.7539 326.108 17.756C321.853 17.7603 316.677 17.7581 314.611 17.7539C312.545 17.7496 305.786 17.7581 299.6 17.7731C293.403 17.7902 286.599 17.7966 284.466 17.788C281.21 17.7752 280.592 17.788 280.603 17.8713C280.615 17.9247 280.884 17.9824 281.21 17.9995C281.535 18.0166 281.322 18.0337 280.749 18.0401C280.165 18.0465 279.694 18.0209 279.683 17.9824C279.671 17.8884 276.415 17.7282 275.562 17.7774C275.18 17.7987 274.63 17.7966 274.327 17.7731C274.024 17.7474 272.407 17.7346 270.734 17.7453C268.725 17.756 267.681 17.7368 267.669 17.6876C267.647 17.5723 267.355 17.5509 264.324 17.4527C261.337 17.3566 256.902 17.2754 257.284 17.3245C257.407 17.3416 257.284 17.395 257.003 17.4441C256.341 17.5616 256.925 17.583 260.955 17.5894C262.696 17.5915 264.391 17.63 264.728 17.6727C265.21 17.7368 264.829 17.7453 262.74 17.7197C260.338 17.6898 260.203 17.694 260.832 17.7944C261.449 17.8906 261.404 17.8991 260.371 17.8777C258.755 17.8436 257.452 17.7816 256.633 17.694C255.925 17.6193 251.3 17.4313 248.134 17.3459C247.224 17.3224 245.214 17.3053 243.665 17.3074C242.116 17.3096 239.365 17.2925 237.557 17.2668C235.75 17.2412 233.212 17.2476 231.932 17.2818C229.822 17.3373 230.001 17.3608 232.651 17.3694C233.044 17.3715 233.628 17.395 233.953 17.4206C234.279 17.4484 234.751 17.4505 235.009 17.427C235.267 17.4035 235.48 17.4121 235.48 17.4463C235.491 17.5189 231.618 17.6321 230.45 17.5915C228.598 17.5274 215.147 17.5061 214.732 17.5659C214.373 17.6193 216.607 17.662 221.513 17.6962C222.187 17.7005 222.501 17.7923 221.884 17.803C218.594 17.8564 217.64 17.8564 217.415 17.8115C217.281 17.7816 216.54 17.7624 215.787 17.7667C214.002 17.7774 213.957 17.9482 215.731 17.9867C224.803 18.1875 238.366 18.2943 246.865 18.2323C253.197 18.1853 275.45 18.1319 278.998 18.1533C280.031 18.1597 281.625 18.1896 282.523 18.2195C283.994 18.2665 283.792 18.275 280.659 18.3007C278.414 18.3199 277.403 18.3477 277.853 18.3818C279.166 18.478 304.888 18.572 305.988 18.4844C306.348 18.4545 307.302 18.4545 308.099 18.4822C308.896 18.51 311.872 18.5121 314.712 18.4886C317.979 18.4609 320.214 18.4716 320.82 18.5164C321.606 18.5741 321.213 18.5912 318.462 18.6083C316.643 18.6189 314.948 18.6617 314.679 18.7001C314.353 18.7492 313.78 18.7514 312.848 18.7065C312.107 18.6723 310.749 18.6659 309.84 18.6916C308.93 18.7172 305.012 18.7151 301.138 18.683C297.265 18.6531 291.348 18.6403 287.991 18.6574C284.634 18.6745 280.165 18.6681 278.043 18.6446C272.598 18.5826 265.682 18.5869 265.693 18.651C265.693 18.6809 265.121 18.6702 264.402 18.6275C263.403 18.5677 262.112 18.5677 258.912 18.6275C256.61 18.6702 254.544 18.6916 254.32 18.6745C253.882 18.6403 252.58 18.777 252.591 18.8582C252.602 18.9009 254.185 18.9735 254.96 18.9671C255.083 18.965 255.993 19.0056 256.958 19.0568C257.946 19.1081 260.955 19.1551 263.785 19.1615C266.782 19.17 269.252 19.2085 269.847 19.2576C270.869 19.3431 277.819 19.4328 288.126 19.4926C295.075 19.5332 302.632 19.5972 306.685 19.6464L309.738 19.6827L307.392 19.7105L305.045 19.7382L307.167 19.8044C309.009 19.8621 308.279 19.8749 301.554 19.892C297.298 19.9027 292.123 19.8813 290.046 19.845C283.489 19.7254 282.748 19.7233 282.77 19.8151C282.781 19.8771 282.063 19.9006 280.087 19.8984C276.168 19.8963 272.778 19.8365 272.014 19.7574C271.509 19.7062 271.296 19.7083 271.161 19.7703C271.06 19.8151 270.521 19.8557 269.96 19.8578C269.219 19.8621 269.118 19.8472 269.556 19.8044C270.443 19.7211 268.792 19.6805 267.276 19.7489C266.591 19.7809 266.434 19.8023 266.906 19.8044C267.344 19.8066 267.804 19.8279 267.928 19.8536C268.287 19.9283 262.404 19.9262 261.292 19.8493C260.742 19.8108 256.947 19.7553 252.86 19.7211C245.574 19.6635 238.927 19.546 244.72 19.578C251.412 19.6143 260.865 19.5887 260.203 19.5353C258.654 19.4114 243.62 19.2085 232.46 19.1594C224.713 19.1252 218.527 19.0675 217.954 19.0227C217.707 19.0034 216.371 18.9778 214.99 18.9671C213.609 18.9564 210.275 18.8881 207.58 18.8133C204.886 18.7386 200.484 18.6723 197.824 18.6659C194.455 18.6574 192.962 18.6275 192.951 18.572C192.94 18.4716 191.401 18.4224 188.707 18.4374C187.169 18.4459 186.787 18.4652 187.315 18.5079C187.921 18.5591 187.91 18.5677 187.202 18.572C185.462 18.5848 186.585 18.8048 188.651 18.8539C189.504 18.8753 190.189 18.9308 190.2 18.9842C190.223 19.106 187.539 19.1209 184.384 19.0162C179.309 18.8475 174.257 18.7727 171.899 18.8283C170.474 18.8625 169.542 18.8603 169.53 18.8219C169.53 18.7877 168.98 18.7279 168.318 18.6894C166.937 18.6104 164.804 18.6083 164.815 18.6852C164.826 18.7856 165.983 18.8859 167.027 18.8795C167.79 18.8753 168.06 18.9094 168.026 19.0056C168.003 19.0782 167.858 19.1295 167.723 19.1209C167.588 19.1124 166.454 19.0227 165.208 18.9223C163.423 18.7791 162.974 18.7087 163.041 18.5848C163.131 18.4374 162.816 18.4182 158.179 18.2729C155.451 18.1875 151.308 18.0016 148.962 17.8585C146.615 17.7154 143.281 17.5146 141.54 17.4121C138.902 17.2583 138.419 17.2049 138.61 17.0938C138.857 16.9486 140.092 16.955 142.472 17.1109C143.146 17.1558 144.257 17.1878 144.942 17.1835C145.627 17.1793 146.278 17.2092 146.379 17.2476C146.638 17.348 151.286 17.474 154.048 17.4548L156.406 17.4377L153.329 17.3053C151.499 17.2263 150.197 17.1323 150.096 17.0703C149.882 16.9379 147.614 16.8824 145.055 16.9507C142.551 17.0169 141.821 16.908 144.224 16.8268L145.975 16.767L144.415 16.7286C143.55 16.7072 141.069 16.6794 138.891 16.6666C136.713 16.6538 134.838 16.6239 134.714 16.5983C134.591 16.5726 136.005 16.5684 137.847 16.5897C139.688 16.6089 141.529 16.6132 141.922 16.5961C142.731 16.5641 142.843 16.5726 139.811 16.4231C138.509 16.359 138.475 16.3505 139.418 16.3227C139.98 16.3056 140.867 16.3206 141.383 16.3548C141.9 16.3889 142.955 16.4146 143.73 16.4103C144.505 16.406 145.257 16.4274 145.403 16.4573C145.549 16.4872 146.256 16.5256 146.963 16.5406C147.682 16.5555 148.67 16.5876 149.153 16.6111C149.894 16.6453 149.983 16.6303 149.692 16.515C149.433 16.4082 149.512 16.3847 150.062 16.4103C150.455 16.4295 150.668 16.4851 150.534 16.5363C150.376 16.6004 150.623 16.6282 151.32 16.6239C152.038 16.6196 152.296 16.5855 152.173 16.5043C152.061 16.4295 150.983 16.3505 149.018 16.2715C147.379 16.2052 145.571 16.1219 144.998 16.0878C143.887 16.0194 141.9 15.9382 141.125 15.9297C140.867 15.9276 139.868 15.8806 138.891 15.8272C137.925 15.7738 136.6 15.7332 135.938 15.7375C135.197 15.7417 134.748 15.7075 134.737 15.6477C134.714 15.5174 134.018 15.5004 142.394 15.8272C144.145 15.8955 145.953 15.9425 146.402 15.9318C147.255 15.9105 150.343 15.9746 156.653 16.1476C160.751 16.2586 162.727 16.2715 162.311 16.1817C162.165 16.1518 161.245 16.1091 160.279 16.0899C159.302 16.0707 158.258 16.028 157.955 15.9959C157.046 15.8998 151.275 15.7246 148.187 15.7011C144.359 15.6712 140.811 15.5858 139.643 15.4939C137.948 15.3615 134.366 15.2889 133.131 15.3615C132.199 15.417 131.941 15.4064 131.75 15.3124C131.57 15.2248 130.728 15.1821 128.472 15.1394C124.744 15.071 124.385 15.0731 125.283 15.1565C125.856 15.2099 125.811 15.2141 125.047 15.18C124.531 15.1565 121.803 15.0667 119.007 14.9813C116.2 14.8959 113.506 14.7976 113.023 14.7656C111.889 14.6887 111.462 14.6908 111.844 14.772C112.237 14.8531 111.934 14.8531 110.44 14.7677C109.767 14.7293 109.419 14.6801 109.655 14.6588C109.89 14.6374 109.194 14.6203 108.116 14.6246C107.027 14.6267 105.523 14.6139 104.759 14.5947L103.367 14.5584L104.804 14.7122C105.59 14.7976 106.488 14.866 106.792 14.8638C107.095 14.8617 107.499 14.8916 107.679 14.93C107.914 14.9792 107.566 14.9898 106.567 14.9642C105.209 14.93 105.141 14.9386 105.366 15.0924C105.557 15.2205 105.444 15.2483 104.883 15.2227C104.49 15.2034 104.209 15.1415 104.265 15.086C104.333 15.0176 103.884 14.9706 102.918 14.9493C101.021 14.9044 100.358 14.8489 100.347 14.7314C100.336 14.678 99.999 14.569 99.5836 14.4879C98.9885 14.3683 98.9436 14.3063 99.359 14.1696C100.235 13.8834 99.606 13.7979 96.7206 13.815C95.3059 13.8236 94.0148 13.8022 93.8576 13.7659C93.6892 13.7317 93.0941 13.704 92.5328 13.7082C91.9714 13.7104 91.1854 13.6847 90.7925 13.6506C90.1637 13.595 90.175 13.5779 90.8598 13.5074C91.5896 13.4327 91.5672 13.4113 90.6016 13.187C89.7259 12.982 89.3217 12.9478 87.9856 12.9564C87.0537 12.9628 86.5261 12.9905 86.7057 13.029C87.0313 13.0995 86.3577 13.1208 85.8524 13.0567C85.684 13.0354 85.8973 12.9756 86.3352 12.9264C87.0313 12.8474 86.8067 12.8389 84.6511 12.8474C82.1586 12.8602 79.8345 12.7342 79.8121 12.5868C79.8008 12.5057 77.0389 12.3946 73.7268 12.3455C71.5487 12.3134 70.527 12.3049 67.1027 12.3006C65.0929 12.2963 65.0593 12.2942 66.3616 12.2322C67.1139 12.1959 68.2591 12.181 68.8878 12.2002C69.7523 12.2258 69.9432 12.213 69.6513 12.1532C69.3594 12.0913 68.1243 12.087 64.655 12.134C62.0952 12.1682 59.9171 12.1703 59.7711 12.1383C59.6252 12.1062 58.3003 12.087 56.8295 12.0955C55.3587 12.1041 52.9561 12.0891 51.4965 12.0656C50.0257 12.04 48.2293 12.0485 47.5108 12.0806L46.1972 12.1404L47.6118 12.2066C48.3865 12.2429 49.4531 12.3006 49.9808 12.3326C50.4973 12.3647 53.2592 12.4053 56.0998 12.4223C62.0054 12.4565 72.0315 12.5783 73.9963 12.6402C76.2418 12.7107 75.9835 12.8325 73.5696 12.8474C72.3907 12.8538 71.414 12.8367 71.414 12.8111C71.4027 12.7833 67.3833 12.7769 62.4657 12.7962C56.459 12.8175 53.6185 12.8517 53.8318 12.8944C54.0002 12.9307 54.7749 12.9564 55.5496 12.9521C56.3243 12.9478 56.8408 12.9713 56.6948 13.0055C56.1783 13.1294 46.0849 12.8602 41.6838 12.6039C40.3252 12.5249 38.7534 12.4629 38.1696 12.4672C37.5184 12.4715 37.103 12.433 37.103 12.3689C37.0918 12.3049 36.8335 12.2792 36.4068 12.3049C35.5311 12.3561 35.0596 12.2557 35.0708 12.0208C35.082 11.8841 34.8575 11.8371 34.24 11.8392C31.7699 11.8542 18.5665 11.7153 16.3435 11.6534C10.8645 11.4975 10.9318 11.4996 11.6167 11.6064C11.9648 11.6598 12.6272 11.7025 13.0987 11.7004C13.5703 11.6982 14.0643 11.7196 14.199 11.7495C14.3337 11.7794 16.1077 11.8606 18.1286 11.9311C20.1495 12.0016 21.9235 12.0827 22.0582 12.1105C22.2042 12.1383 22.8441 12.1874 23.4841 12.2194C24.4384 12.2664 24.4833 12.2792 23.7536 12.2856C23.2596 12.2899 22.5185 12.2579 22.1031 12.213C21.6877 12.1682 18.8023 12.0507 15.6923 11.9546C11.6055 11.8264 9.33757 11.7175 7.52995 11.5594C6.14898 11.4398 3.80242 11.2646 2.30918 11.1749C0.815929 11.0831 -0.0934784 11.004 0.288254 10.9998C0.669986 10.9955 1.6131 11.0318 2.36533 11.0809C4.12804 11.1963 4.31891 11.1621 3.31967 10.9122C2.8818 10.8011 2.61231 10.6964 2.72459 10.6772C2.83686 10.6601 4.521 10.7819 6.44089 10.9485C12.6609 11.4846 15.4565 11.6171 16.9722 11.4483C17.8367 11.3522 17.8367 11.3458 16.9947 11.2689C16.5119 11.224 14.5134 11.1429 12.5374 11.0873C8.32709 10.972 8.13622 10.9613 8.4955 10.8759C8.66391 10.8374 8.98949 10.8331 9.32631 10.8652C10.1122 10.9442 15.9393 11.1002 17.5111 11.0852C19.0044 11.0702 18.8809 11.0638 15.1309 10.9378C13.6152 10.8887 12.4588 10.8353 12.5598 10.8203C12.717 10.799 17.0171 10.878 20.8007 10.9763C21.3846 10.9912 21.8561 10.9741 21.8561 10.9399C21.8449 10.846 17.6571 10.6324 15.2319 10.6046C12.3465 10.5704 11.1901 10.4828 13.3345 10.4636L14.9737 10.4487L13.4356 10.3525C12.5935 10.2991 11.8862 10.2329 11.8862 10.2052C11.8749 10.1368 13.1436 10.1987 15.2993 10.3696C16.3322 10.4529 18.6788 10.5384 20.9691 10.5768C23.6413 10.6238 24.3149 10.6495 23.1136 10.6623C21.059 10.6836 20.8008 10.7926 22.6757 10.8438C23.3831 10.8631 24.1914 10.9015 24.4721 10.9293C25.2019 11.0019 30.3441 11.0702 35.9802 11.0831C41.695 11.0959 50.9913 11.1386 58.0534 11.1877C68.0121 11.2561 69.7972 11.2625 69.7972 11.2262C69.7972 11.207 68.9889 11.1215 68.0121 11.0361C66.7434 10.925 65.6206 10.8844 64.0488 10.893C61.5226 10.9079 59.5129 10.7477 59.9732 10.5661C60.1866 10.4828 60.5795 10.4636 61.5338 10.4914L62.8025 10.5277L61.7921 10.344C61.2419 10.2436 60.3325 10.0984 59.7823 10.0236C59.2322 9.94884 58.7719 9.84204 58.7719 9.78864C58.7494 9.67756 56.8408 9.64125 50.531 9.63698C48.2069 9.63484 45.6695 9.61989 44.8948 9.6028C44.1201 9.58571 41.796 9.57076 39.7302 9.56862C37.6643 9.56649 32.0955 9.55367 27.3576 9.54086C20.8569 9.52377 18.5777 9.53658 18.0949 9.59639C17.1294 9.71601 17.3315 9.77795 18.7686 9.79931C19.4759 9.80999 18.4542 9.83349 16.4894 9.84844C14.5246 9.86553 12.2567 9.89971 11.4596 9.92747C9.99999 9.9766 9.6856 9.93388 10.348 9.78009C10.6287 9.71601 11.3585 9.7096 13.6713 9.75232C16.1077 9.79718 16.714 9.79077 17.0395 9.71601C17.803 9.53872 17.4774 9.44473 16.2536 9.48532C15.6137 9.50668 15.086 9.50241 15.0747 9.47464C15.0747 9.44901 14.0306 9.41483 12.7731 9.39774C9.71928 9.35929 6.09284 9.229 4.92518 9.11365C4.03822 9.02607 4.06065 9.02394 5.39672 9.06239C6.17141 9.08375 7.44012 9.08802 8.21481 9.0688C9.47228 9.03889 9.5172 9.03035 8.67514 8.98122C7.99027 8.94277 8.18113 8.93636 9.37123 8.95772C14.7829 9.05171 17.4887 9.0752 24.8763 9.09443C29.3897 9.10511 35.2055 9.13074 37.7878 9.1521C40.3701 9.17346 44.0415 9.19482 45.939 9.19909C49.1051 9.20977 49.3409 9.20123 48.7346 9.10724C48.1507 9.0154 48.1844 9.01112 49.0265 9.06666C49.543 9.10083 51.2944 9.14356 52.9112 9.15851C55.6956 9.18628 55.8528 9.182 55.8303 9.04957C55.8191 8.97267 55.5384 8.90005 55.2128 8.88723C54.8872 8.87442 49.5542 8.85947 43.3566 8.85519C32.5222 8.84665 26.7288 8.7847 25.8868 8.6715C25.6622 8.64159 26.1113 8.63091 26.8973 8.648C31.7363 8.75266 50.7667 8.68645 51.6088 8.56256C51.9119 8.53052 52.5968 8.48993 53.1245 8.4878ZM64.0825 6.67432C63.5323 6.68072 63.4313 6.69568 63.8018 6.7149C64.1386 6.73199 64.5428 6.72772 64.7 6.70422C64.8571 6.68286 64.5765 6.66791 64.0825 6.67432ZM80.5756 6.83452C80.4071 6.80034 79.958 6.77257 79.5763 6.77471C79.1946 6.77684 79.0037 6.80675 79.1721 6.84306C79.3405 6.87724 79.7896 6.905 80.1713 6.90287C80.5643 6.90073 80.744 6.87083 80.5756 6.83452ZM86.0882 4.78821C85.8187 4.79035 85.7289 4.82025 85.8861 4.85443C86.0545 4.8886 86.2791 4.91637 86.3913 4.91637C86.5036 4.91637 86.5934 4.88647 86.5822 4.85015C86.5934 4.81384 86.3689 4.78607 86.0882 4.78821ZM181.286 2.88501C180.735 2.89142 180.634 2.90637 181.005 2.9256C181.342 2.94269 181.746 2.93841 181.903 2.91492C182.049 2.89356 181.78 2.87861 181.286 2.88501ZM187.876 2.78889C187.101 2.7953 186.843 2.81025 187.303 2.8252C187.764 2.83802 188.392 2.83375 188.707 2.81453C189.021 2.7953 188.651 2.78462 187.876 2.78889ZM202.561 3.01531C199.923 3.02813 195.544 3.02386 192.839 3.00463C183.284 2.93841 183.104 2.93628 184.62 2.98541C187.753 3.08366 192.446 3.1392 197.79 3.14134C200.889 3.14134 204.639 3.15415 206.121 3.16911C207.838 3.18619 208.815 3.17124 208.815 3.12852C208.793 3.01531 207.535 2.99182 202.561 3.01531ZM624.241 2.29975C624.409 2.33392 624.757 2.36169 625.004 2.35955C625.251 2.35742 625.341 2.32751 625.173 2.29334C625.004 2.25916 624.656 2.23139 624.409 2.23353C624.162 2.23566 624.073 2.26557 624.241 2.29975ZM615.708 1.7636C617.033 1.83409 618.886 1.82341 618.526 1.74652C618.358 1.71234 617.448 1.68884 616.494 1.69739C615.102 1.7102 614.945 1.72302 615.708 1.7636ZM605.884 2.64365C606.344 2.65646 606.973 2.65219 607.288 2.63297C607.602 2.61374 607.232 2.60306 606.457 2.60733C605.682 2.61374 605.424 2.63083 605.884 2.64365ZM613.036 4.18371C612.643 4.15168 612.003 4.12818 611.621 4.13245C611.161 4.13672 611.24 4.15808 611.868 4.19012C613.171 4.26061 613.912 4.25634 613.036 4.18371ZM608.399 4.49344C609.578 4.57888 616.909 4.67073 616.337 4.5917C616.169 4.57034 614.686 4.52975 613.036 4.50412C611.386 4.47849 609.398 4.44645 608.624 4.43149L607.209 4.40586L608.399 4.49344ZM602.404 4.41868C602.718 4.39945 602.46 4.38664 601.809 4.38877C601.169 4.39305 600.899 4.408 601.225 4.42509C601.55 4.44004 602.078 4.4379 602.404 4.41868ZM601.505 5.98438C601.842 6.00147 602.246 5.9972 602.404 5.9737C602.561 5.95021 602.28 5.93739 601.786 5.9438C601.236 5.95021 601.124 5.96516 601.505 5.98438ZM599.81 5.16629C600.068 5.22182 601.472 5.18124 601.461 5.11929C601.461 5.10434 601.023 5.0958 600.495 5.10007C599.956 5.10434 599.653 5.13425 599.81 5.16629ZM596.038 7.05666C596.375 7.07375 596.779 7.06948 596.936 7.04599C597.093 7.02249 596.812 7.00967 596.318 7.01608C595.768 7.02035 595.667 7.03744 596.038 7.05666ZM627.486 12.8752C628.159 12.8431 628.496 12.8111 628.238 12.8047C627.003 12.7748 623.781 12.7983 623.781 12.8389C623.803 12.9136 626.183 12.9371 627.486 12.8752ZM620.121 13.375C621.154 13.3686 621.995 13.3344 621.984 13.3003C621.973 13.2639 621.131 13.2404 620.098 13.2469C619.065 13.2533 618.223 13.2874 618.234 13.3216C618.246 13.3558 619.088 13.3814 620.121 13.375ZM604.166 14.8318C604.548 14.8296 604.862 14.7976 604.862 14.7634C604.851 14.7271 604.537 14.6993 604.144 14.7015C603.762 14.7036 603.448 14.7357 603.448 14.7698C603.448 14.804 603.773 14.8339 604.166 14.8318ZM565.241 8.33614C565.567 8.35323 566.094 8.34896 566.409 8.32973C566.723 8.31051 566.465 8.29769 565.814 8.29983C565.174 8.3041 564.915 8.31905 565.241 8.33614ZM569.631 7.16133C568.721 7.11434 564.803 7.09938 565.207 7.14637C565.319 7.15919 566.566 7.17842 567.992 7.19123C569.597 7.20405 570.226 7.19337 569.631 7.16133ZM564.275 8.58819C573.403 8.65441 595.667 8.4942 592.344 8.38527C591.569 8.35964 589.661 8.34041 588.111 8.34255C586.562 8.34468 584.81 8.31478 584.215 8.27633C583.587 8.23575 581.846 8.22079 580.106 8.24429C578.444 8.26565 577.075 8.26352 577.075 8.23788C577.075 8.21225 575.278 8.1973 573.078 8.20371C570.888 8.21011 569.092 8.24216 569.103 8.2742C569.103 8.30624 569.586 8.32973 570.17 8.3276C570.754 8.32546 571.551 8.35109 571.944 8.3874C572.483 8.43653 572.269 8.44508 571.068 8.42372C570.192 8.40876 569.058 8.39809 568.542 8.40022C567.767 8.40449 567.7 8.38954 568.171 8.3041C568.531 8.24002 568.564 8.20371 568.239 8.20584C567.958 8.20798 567.543 8.26138 567.296 8.32332C566.959 8.4109 566.195 8.44294 564.017 8.46003C559.93 8.49634 560.065 8.55829 564.275 8.58819ZM347.71 3.03453C347.451 3.03667 347.249 3.06871 347.249 3.10502C347.26 3.14347 347.474 3.15415 347.721 3.13066C347.979 3.10716 348.181 3.07512 348.181 3.06017C348.181 3.04522 347.968 3.0324 347.71 3.03453ZM369.423 2.38946C368.896 2.4215 370.4 2.42577 372.881 2.40014C375.295 2.37451 377.372 2.33819 377.507 2.31897C377.889 2.2613 370.445 2.32751 369.423 2.38946ZM370.479 3.13279C366.605 3.13279 362.171 3.11357 360.621 3.09221C356.871 3.03881 350.584 3.08153 350.258 3.16056C350.112 3.19474 350.146 3.24387 350.348 3.26736C350.539 3.29086 350.786 3.27164 350.898 3.22678C351.01 3.18192 351.314 3.16056 351.572 3.18192C352.245 3.23532 354.603 3.24173 366.987 3.22037C373.05 3.20969 377.9 3.18619 377.777 3.16911C377.631 3.14988 374.352 3.13493 370.479 3.13279ZM369.311 5.36066C369.76 5.37348 370.501 5.36921 370.95 5.35212C371.399 5.33503 371.029 5.32222 370.131 5.32649C369.221 5.33076 368.862 5.34785 369.311 5.36066ZM379.921 4.41013C378.843 4.41654 377.968 4.44858 377.979 4.48276C377.99 4.53616 381.201 4.48489 381.684 4.42295C381.785 4.41013 380.988 4.40372 379.921 4.41013ZM428.3 2.2079C426.358 2.19935 417.387 2.22071 408.36 2.25702C399.333 2.29333 391.205 2.31683 390.295 2.31042C389.386 2.30402 386.759 2.32751 384.435 2.36382C380.606 2.4215 380.415 2.43004 382.335 2.46208C385.995 2.51976 388.072 2.53684 393.147 2.54325C395.853 2.54753 399.446 2.55607 401.13 2.56248C402.814 2.56888 406.395 2.57529 409.112 2.57743C411.818 2.57956 414.681 2.59238 415.456 2.60733C416.231 2.62228 418.454 2.64151 420.385 2.65005C422.327 2.6586 424.808 2.67568 425.909 2.69064C427.222 2.70772 427.907 2.69064 427.896 2.64365C427.885 2.60306 428.053 2.58384 428.266 2.60092C428.704 2.6351 475.455 2.44072 475.186 2.40655C474.77 2.35315 453.057 2.25062 437.686 2.23353C434.464 2.22712 430.231 2.21644 428.3 2.2079ZM391.261 4.37809C387.836 4.37169 385.928 4.39091 385.737 4.43577C385.58 4.47422 385.928 4.5148 386.523 4.52548C390.026 4.59597 394.708 4.64937 396.414 4.64082C398.368 4.63014 398.379 4.62801 397.436 4.50839C396.661 4.41227 395.538 4.38664 391.261 4.37809ZM402.163 4.60451C402.421 4.5917 403.263 4.58315 404.038 4.58102C405.228 4.57888 405.295 4.57247 404.475 4.53189C403.937 4.50626 402.398 4.47421 401.062 4.46353C399.165 4.44858 398.626 4.46354 398.637 4.53616C398.637 4.6216 400.883 4.66432 402.163 4.60451ZM399.749 7.24463C400.13 7.26172 400.568 7.24891 400.714 7.21259C400.86 7.17842 400.546 7.15065 400.018 7.15492C398.873 7.16346 398.772 7.19978 399.749 7.24463ZM455.437 7.64834C464.239 7.74446 474.68 7.79359 475.04 7.74019C475.859 7.61844 472.761 7.56717 463.161 7.5394C461.87 7.53513 456.369 7.48173 450.946 7.41979C434.239 7.22755 432.69 7.21686 430.153 7.27026C428.805 7.30017 427.694 7.29804 427.683 7.266C427.683 7.23395 425.19 7.1891 422.147 7.1656C419.116 7.14211 414.827 7.10579 412.627 7.08443C404.139 7.00113 404.431 6.99899 404.588 7.13783C404.61 7.16133 404.374 7.17842 404.06 7.17842C403.746 7.17842 402.96 7.18696 402.32 7.19551L401.152 7.21259L402.511 7.30231C404.273 7.41765 408.203 7.48387 415.759 7.52445C423.034 7.5629 424.382 7.57358 431.736 7.65688C441.357 7.76369 444.49 7.77223 444.838 7.68893C445.276 7.58426 448.476 7.57358 455.437 7.64834ZM448.756 7.70174C449.082 7.71883 449.61 7.71456 449.924 7.69533C450.238 7.67611 449.98 7.66329 449.329 7.66543C448.689 7.66757 448.431 7.68465 448.756 7.70174ZM484.718 5.82845C493.733 5.84981 516.458 5.73233 515.964 5.66825C515.784 5.64475 513.898 5.62766 511.776 5.63194C507.543 5.64048 503.557 5.62339 497.674 5.56786C493.419 5.52727 492.308 5.52727 488.198 5.55504C486.649 5.56572 480.429 5.60417 474.366 5.64262C468.303 5.67893 458.704 5.71951 453.023 5.73233C447.342 5.74515 443.334 5.76223 444.108 5.77291C449.756 5.84768 455.976 5.8669 465.71 5.8434C471.896 5.82418 480.451 5.81991 484.718 5.82845ZM483.225 6.05487C484.325 6.05273 485.212 6.03137 485.212 6.00788C485.201 5.94593 480.047 5.94166 479.418 6.00147C478.868 6.05487 479.52 6.06341 483.225 6.05487ZM488.03 6.00147C488.03 6.03564 488.355 6.04633 488.737 6.02283C489.119 5.99933 489.433 5.96943 489.433 5.95661C489.433 5.9438 489.108 5.93312 488.726 5.93525C488.333 5.93739 488.019 5.96729 488.03 6.00147ZM513.651 3.58563C513.101 3.59204 513 3.60699 513.37 3.62621C513.707 3.6433 514.111 3.63903 514.268 3.61553C514.426 3.59417 514.145 3.58136 513.651 3.58563ZM493.554 3.89108C493.397 3.92739 491.039 3.97439 488.266 3.99361C484.493 4.02138 483.719 4.03847 485.133 4.06837C486.166 4.08973 488.277 4.09187 489.826 4.07051C491.376 4.05128 494.43 4.01711 496.619 3.99788C500.459 3.96371 500.537 3.95943 498.943 3.88681C496.956 3.79923 493.947 3.79923 493.554 3.89108ZM468.337 3.89536C468.786 3.89322 473.805 3.87826 479.475 3.86545C485.818 3.85049 489.164 3.82273 488.142 3.79496C485.841 3.72874 467.495 3.77146 467.506 3.84409C467.506 3.87613 467.888 3.89963 468.337 3.89536ZM465.53 4.91851C464.071 4.90996 463.61 4.92919 463.633 5.00395C463.644 5.08298 464.374 5.0958 467.675 5.06803C469.886 5.05094 471.065 5.02744 470.291 5.01677C469.516 5.00609 468.562 4.98259 468.169 4.96336C467.764 4.94628 466.574 4.92492 465.53 4.91851ZM442.357 3.57709C448.487 3.54932 449.958 3.53009 447.746 3.50446C446.062 3.48524 441.84 3.46815 438.349 3.46388C433.072 3.4596 432.173 3.47028 432.959 3.5365C433.644 3.59204 436.35 3.60272 442.357 3.57709ZM436.002 4.73481C437.349 4.76258 438.607 4.75617 439.011 4.71986C439.505 4.67713 439.157 4.66005 437.832 4.66218C436.799 4.66432 435.328 4.65578 434.554 4.64296C432.241 4.60238 433.51 4.68354 436.002 4.73481ZM427.952 5.97156C427.054 5.97584 426.683 5.99292 427.132 6.00574C427.581 6.01856 428.323 6.01429 428.772 5.9972C429.221 5.97797 428.85 5.96516 427.952 5.97156ZM427.75 3.42756C427.2 3.43397 427.099 3.44893 427.469 3.46815C427.806 3.48524 428.21 3.48096 428.367 3.45747C428.525 3.43611 428.244 3.42116 427.75 3.42756ZM424.427 5.92671C423.394 5.93312 423.034 5.94807 423.618 5.96089C424.202 5.9737 425.044 5.96729 425.493 5.94807C425.931 5.93098 425.46 5.9203 424.427 5.92671ZM426.582 3.47029C426.47 3.45747 424.696 3.44038 422.63 3.43397C419.936 3.42329 419.408 3.43184 420.755 3.46388C422.619 3.50873 426.964 3.51301 426.582 3.47029ZM419.015 4.58315C418.465 4.58956 418.364 4.60451 418.734 4.62373C419.071 4.64082 419.475 4.63655 419.632 4.61305C419.79 4.58956 419.509 4.57674 419.015 4.58315ZM454.325 2.11605C453.292 2.12246 452.933 2.13741 453.517 2.15022C454.101 2.16304 454.943 2.15663 455.392 2.13741C455.841 2.12032 455.358 2.10964 454.325 2.11605ZM449.127 2.13527C448.577 2.14168 448.476 2.15663 448.846 2.17586C449.183 2.19295 449.587 2.18867 449.744 2.16518C449.902 2.14382 449.621 2.12886 449.127 2.13527ZM439.505 1.8704C438.865 1.87468 438.596 1.88963 438.921 1.90672C439.247 1.92381 439.774 1.91953 440.089 1.90031C440.414 1.87895 440.156 1.86613 439.505 1.8704ZM458.502 1.67176C458.333 1.69739 454.303 1.73156 449.542 1.75079C443.783 1.77428 440.897 1.80632 440.908 1.85332C440.92 1.89817 444.793 1.89604 452.686 1.84477C459.153 1.80419 464.273 1.74865 464.048 1.72088C463.498 1.6568 458.884 1.61622 458.502 1.67176ZM499.37 1.90458C479.587 2.00925 480.844 1.99857 481.765 2.07333C482.293 2.11604 481.978 2.13314 480.597 2.13955C479.138 2.14595 478.924 2.13314 479.654 2.08614C480.238 2.0477 478.801 2.03702 475.758 2.05624C473.109 2.07333 470.796 2.06905 470.639 2.0477C470.223 1.99429 469.55 2.00284 469.561 2.06265C469.561 2.09042 466.664 2.12459 463.116 2.13955L456.672 2.16731L461.14 2.20362C463.599 2.22285 469.202 2.27198 473.591 2.30829C478.891 2.35315 483.079 2.35314 486.031 2.31042C488.479 2.27411 492.274 2.25489 494.474 2.26984C499.617 2.30402 516.054 2.2079 519.085 2.12459L521.42 2.06051L519.31 2.04983C517.423 2.04128 514.706 2.04769 503.872 2.08401C499.527 2.09896 500.571 2.03701 505.388 1.99429C507.644 1.97507 509.587 1.93235 509.721 1.90245C509.845 1.87254 505.197 1.87254 499.37 1.90458ZM519.029 1.73584C515.032 1.7572 512.73 1.79137 513.134 1.82341C513.662 1.86613 513.617 1.88322 512.91 1.90885C512.427 1.92594 514.729 1.9174 518.041 1.88749C521.342 1.85759 524.396 1.80419 524.822 1.76788C525.327 1.72515 523.363 1.71448 519.029 1.73584ZM524.227 3.47242C523.183 3.47883 523.205 3.4831 524.474 3.52155C525.249 3.54505 526.416 3.56 527.056 3.55573C528.101 3.54932 528.078 3.54505 526.809 3.5066C526.046 3.4831 524.878 3.46815 524.227 3.47242ZM523.767 5.64903C524.227 5.66184 524.856 5.65757 525.17 5.63834C525.485 5.61912 525.114 5.60844 524.339 5.61271C523.565 5.61912 523.306 5.63621 523.767 5.64903ZM528.314 1.35776C527.764 1.36417 527.663 1.37912 528.033 1.39835C528.37 1.41543 528.774 1.41116 528.931 1.38766C529.089 1.3663 528.808 1.35135 528.314 1.35776ZM527.943 1.74438C526.484 1.78283 526.282 1.80205 527.023 1.83196C527.539 1.85332 528.583 1.84477 529.347 1.81273C531.222 1.73157 530.256 1.68457 527.943 1.74438ZM533.355 0.548206C532.805 0.554615 532.704 0.569567 533.074 0.588791C533.411 0.605881 533.815 0.601606 533.973 0.578112C534.13 0.556751 533.849 0.543934 533.355 0.548206ZM535.814 1.05017C535.477 0.979685 533.827 0.988228 531.357 1.0758C530.009 1.1228 530.279 1.13134 532.917 1.1228C534.949 1.11639 536.005 1.08862 535.814 1.05017ZM534.096 2.03488L536.431 1.97293L533.636 1.97934C532.041 1.98362 531.042 2.00925 531.3 2.04129C531.559 2.07119 532.805 2.06692 534.096 2.03488ZM533.759 2.74617C533.479 2.81453 538.991 2.76326 539.463 2.69277C539.62 2.66928 538.464 2.6586 536.88 2.66714C535.309 2.67782 533.905 2.712 533.759 2.74617ZM595.488 3.54932C595.824 3.5664 596.229 3.56213 596.386 3.53864C596.543 3.51514 596.262 3.50232 595.768 3.50873C595.218 3.513 595.106 3.53009 595.488 3.54932ZM591.973 1.50942C593.646 1.62476 598.092 1.65467 598.081 1.55C598.081 1.5201 597.531 1.46456 596.869 1.42611C596.206 1.38766 594.455 1.3663 592.984 1.37485L590.312 1.39194L591.973 1.50942ZM587.561 2.48985C588.021 2.50267 588.65 2.4984 588.964 2.47917C589.279 2.45995 588.908 2.44927 588.134 2.45354C587.359 2.45995 587.101 2.4749 587.561 2.48985ZM571.697 2.40441C571.865 2.43859 572.09 2.46636 572.202 2.46636C572.314 2.46636 572.404 2.43645 572.393 2.40014C572.382 2.36383 572.157 2.33606 571.888 2.33819C571.618 2.34033 571.528 2.37023 571.697 2.40441ZM571.068 6.41799C571.405 6.43508 571.809 6.43081 571.966 6.40731C572.123 6.38382 571.843 6.371 571.349 6.37741C570.798 6.38382 570.686 6.39877 571.068 6.41799ZM562.12 6.36673C563.343 6.36246 565.409 6.36673 566.7 6.37314C568.441 6.38168 568.834 6.36887 568.239 6.32401C566.981 6.23002 559.874 6.20866 559.885 6.30051C559.885 6.34323 560.772 6.371 562.12 6.36673ZM587.651 1.63758C589.728 1.66748 590.054 1.62049 589.032 1.44534C588.56 1.36417 587.314 1.34067 583.362 1.33854C580.432 1.3364 578.411 1.35776 578.568 1.39194C578.725 1.42398 578.276 1.43038 577.535 1.40689C576.042 1.35776 548.344 1.50942 537.79 1.62476C526.282 1.74865 531.424 1.79351 547.344 1.70807C562.692 1.62263 584.148 1.58632 587.651 1.63758ZM541.596 1.97507L543.359 1.97293C544.324 1.97293 545.11 1.94303 545.11 1.90672C545.099 1.8704 545.043 1.84691 544.987 1.85118C544.919 1.85545 544.133 1.88536 543.235 1.9174L541.596 1.97507ZM546.514 2.6586C547.097 2.67141 548.041 2.665 548.624 2.64578C549.197 2.62656 548.725 2.61801 547.569 2.62442C546.401 2.63296 545.93 2.64792 546.514 2.6586ZM545.593 8.70994C546.177 8.72276 547.12 8.71635 547.704 8.69713C548.276 8.68004 545.009 8.69926 545.593 8.70994ZM556.057 6.7918C556.843 6.72344 556.843 6.71917 555.956 6.71704C555.439 6.71704 554.597 6.70636 554.07 6.69354C552.251 6.65296 541.865 6.65296 542.146 6.69354C542.752 6.77898 555.192 6.86869 556.057 6.7918ZM539.16 8.7014C539.429 8.69926 539.519 8.66936 539.362 8.63518C539.193 8.60101 538.969 8.57324 538.856 8.57324C538.744 8.57324 538.654 8.60314 538.666 8.63945C538.666 8.67577 538.89 8.70354 539.16 8.7014ZM543.942 3.47242C544.627 3.43824 541.798 3.4297 537.015 3.4532C531.907 3.47883 528.931 3.51728 528.931 3.55786C528.954 3.6369 542.202 3.56213 543.942 3.47242ZM533.288 8.12467C533.445 8.10118 533.164 8.08836 532.67 8.09477C532.12 8.10118 532.019 8.11613 532.389 8.13535C532.726 8.15031 533.13 8.14603 533.288 8.12467ZM526.765 9.09443C528.056 9.11152 530.279 9.0987 531.682 9.06666C533.782 9.01753 533.355 9.01112 529.336 9.03462C525.541 9.05598 524.946 9.07093 526.765 9.09443ZM525.911 8.69072C526.248 8.70781 526.652 8.70354 526.809 8.68004C526.967 8.65654 526.686 8.64373 526.192 8.65014C525.642 8.65654 525.529 8.67363 525.911 8.69072ZM521.723 9.10511C522.049 9.1222 522.577 9.11792 522.891 9.0987C523.205 9.07948 522.947 9.06666 522.296 9.0688C521.656 9.07093 521.398 9.08802 521.723 9.10511ZM521.185 8.72062C521.768 8.73344 522.711 8.72703 523.295 8.70781C523.868 8.68858 523.396 8.68004 522.24 8.68645C521.083 8.69286 520.601 8.70781 521.185 8.72062ZM519.119 8.2272C519.792 8.24643 528.92 8.17167 529.111 8.1439C529.425 8.09691 523.711 8.10972 521.229 8.16099C519.804 8.18876 518.86 8.21866 519.119 8.2272ZM521.712 5.6832C522.161 5.64475 521.533 5.62339 519.916 5.61699C518.557 5.61271 517.356 5.62553 517.266 5.64903C516.985 5.71524 520.96 5.74728 521.712 5.6832ZM519.478 3.58136C519.601 3.56214 518.58 3.55359 517.21 3.56213C515.829 3.57068 514.852 3.59418 515.032 3.61767C515.38 3.66253 519.119 3.63262 519.478 3.58136ZM512.259 8.648C514.65 8.64159 516.592 8.6245 516.592 8.60955C516.581 8.55401 514.291 8.55188 511.192 8.60528L507.914 8.66081L512.259 8.648ZM486.671 8.80606C490.062 8.78684 492.723 8.7548 492.588 8.73771C492.061 8.66936 480.474 8.70354 480.485 8.77402C480.496 8.81675 482.652 8.82956 486.671 8.80606ZM477.117 8.8082C477.566 8.86587 477.813 8.86587 478.24 8.80179C478.666 8.73771 478.543 8.72276 477.667 8.72703C476.791 8.73344 476.668 8.75053 477.117 8.8082ZM471.458 8.8082C472.042 8.82102 472.985 8.81461 473.569 8.79539C474.142 8.77616 473.67 8.76762 472.514 8.77402C471.357 8.78043 470.874 8.79752 471.458 8.8082ZM446.477 17.0746C446.803 17.0917 447.331 17.0874 447.645 17.0682C447.959 17.049 447.701 17.0362 447.05 17.0383C446.421 17.0426 446.152 17.0596 446.477 17.0746ZM433.891 8.69713C434.34 8.6779 433.97 8.66722 433.06 8.6715C432.162 8.67577 431.792 8.69285 432.241 8.70567C432.712 8.72062 433.442 8.71635 433.891 8.69713ZM431.242 17.1002C431.96 17.1109 433.016 17.1045 433.588 17.0853C434.161 17.0661 433.577 17.0575 432.286 17.0661C430.995 17.0746 430.523 17.0896 431.242 17.1002ZM360.7 8.05419C369.603 8.11613 380.595 8.21439 385.838 8.27633C387.646 8.29769 390.61 8.32332 392.417 8.334C394.225 8.34468 397.077 8.37672 398.761 8.40236C400.445 8.42799 403.611 8.45362 405.812 8.45576C412.2 8.46216 420.542 8.50916 421.317 8.54547C421.71 8.56256 423.405 8.58605 425.078 8.59674C427.301 8.60955 427.907 8.59887 427.29 8.55401C426.01 8.45789 426.762 8.36177 428.233 8.43226C428.94 8.46644 432.151 8.49207 435.385 8.4878C438.618 8.48353 444.277 8.51129 447.97 8.54761C454.348 8.60955 454.718 8.60741 455.28 8.49421C455.639 8.42372 456.11 8.39381 456.47 8.42372C456.941 8.46003 456.941 8.48139 456.503 8.52411C455.56 8.61169 473.479 8.68431 483 8.63091C488.816 8.59887 490.915 8.5177 486.088 8.51129C484.808 8.50916 483.382 8.47925 482.91 8.44294C482.293 8.39595 484.46 8.37672 490.736 8.37459C495.507 8.37245 500.313 8.36177 501.413 8.34896C502.513 8.33614 503.411 8.34896 503.411 8.37886C503.423 8.46644 515.975 8.35536 516.615 8.26138C517.064 8.19516 516.839 8.17807 515.56 8.17807C514.673 8.17807 513.101 8.17594 512.068 8.17594C511.035 8.17594 506.6 8.17594 502.21 8.17594C497.82 8.17594 492.016 8.1738 489.299 8.17167C486.593 8.16953 480.889 8.1738 476.634 8.18235C460.444 8.21225 449.845 8.19943 438.382 8.14176C436.833 8.13322 433.768 8.1204 431.567 8.10972C424.382 8.07982 415.377 7.99865 414.412 7.95593C413.626 7.91962 413.581 7.92602 414.187 7.98583C414.771 8.04564 414.692 8.05205 413.727 8.02642C413.076 8.00933 410.123 7.99651 407.148 7.99865C401.882 8.00292 401.815 8.00506 404.105 8.07982C405.396 8.12254 407.63 8.16739 409.045 8.18021C413.862 8.22507 415.164 8.25283 415.175 8.31692C415.175 8.35109 414.996 8.36604 414.771 8.34682C414.546 8.32973 412.267 8.31051 409.719 8.3041C407.17 8.29769 403.173 8.26351 400.849 8.2272C397.178 8.17167 390.767 8.08836 386.972 8.04778C386.321 8.04137 385.479 8.02215 385.086 8.00292C384.255 7.96661 379 7.91962 374.981 7.91321C373.432 7.91107 368.042 7.90039 363.013 7.88971C357.983 7.87903 353.121 7.86621 352.212 7.85981C351.302 7.8534 349.731 7.87262 348.698 7.90039C346.553 7.9602 345.767 7.94952 360.7 8.05419ZM344.195 17.0105C344.532 17.0276 344.936 17.0233 345.094 16.9998C345.251 16.9763 344.97 16.9635 344.476 16.9699C343.926 16.9763 343.814 16.9913 344.195 17.0105ZM333.844 7.90253C334.181 7.91962 334.585 7.91534 334.742 7.89185C334.899 7.86835 334.618 7.85554 334.124 7.86194C333.574 7.86835 333.462 7.88544 333.844 7.90253ZM342.343 3.31436C342.5 3.29086 339.289 3.2695 335.202 3.26523C331.127 3.26095 327.107 3.25668 326.265 3.25668C325.423 3.25668 324.738 3.27591 324.75 3.30154C324.772 3.38911 341.77 3.3998 342.343 3.31436ZM321.247 3.18619C320.494 3.19047 319.821 3.31222 320.236 3.36776C320.629 3.41902 321.943 3.32717 321.931 3.25027C321.92 3.21183 321.617 3.18406 321.247 3.18619ZM315.655 5.10648C316.823 5.12784 318.833 5.13852 320.113 5.12997L322.459 5.11289L320.101 5.07657C318.81 5.05521 316.801 5.04667 315.644 5.05308L313.533 5.06803L315.655 5.10648ZM309.536 3.26096C309.413 3.23319 308.189 3.21183 306.831 3.20969C305.472 3.20969 304.45 3.22037 304.585 3.23319C305.012 3.28445 309.772 3.31008 309.536 3.26096ZM586.809 19.3495C589.728 19.3324 591.491 19.2726 591.479 19.1871C591.468 19.1038 588.302 19.1337 587.943 19.2213C587.774 19.2619 587.146 19.2832 586.551 19.2726C585.956 19.2597 585.181 19.2768 584.855 19.3067C584.473 19.3409 585.248 19.358 586.809 19.3495ZM578.006 19.2768C578.197 19.2726 579.185 19.2662 580.218 19.2598C581.251 19.2533 582.093 19.2192 582.082 19.185C582.071 19.1487 581.004 19.1252 579.691 19.1337C578.197 19.1423 577.378 19.1722 577.49 19.217C577.591 19.2512 577.827 19.279 578.006 19.2768ZM571.416 19.3687C576.165 19.3473 578.186 19.2683 575.862 19.1957C574.189 19.1444 564.253 19.2149 564.264 19.279C564.287 19.3708 566.072 19.3943 571.416 19.3687ZM557.404 18.8689C555.058 18.8817 553.418 18.918 553.43 18.9564C553.441 18.9949 555.08 19.012 557.427 18.9992C559.773 18.9863 561.412 18.95 561.401 18.9116C561.39 18.8731 559.74 18.856 557.404 18.8689ZM557.865 19.3366C559.425 19.373 560.447 19.3666 561.143 19.3153C561.951 19.2555 561.491 19.2448 558.875 19.264L555.596 19.2854L557.865 19.3366ZM551.252 19.2747C551.97 19.2854 553.025 19.279 553.598 19.2598C554.171 19.2405 553.587 19.232 552.296 19.2405C551.005 19.2491 550.533 19.264 551.252 19.2747ZM544.953 19.5075C546.064 19.5097 546.109 19.5033 545.301 19.4584C544.066 19.3922 543.651 19.39 543.662 19.4541C543.651 19.4819 544.234 19.5054 544.953 19.5075ZM536.993 19.5417C540.788 19.5524 542.258 19.5353 542.247 19.4819C542.236 19.4306 540.518 19.4178 536.768 19.4392C533.759 19.4563 531.39 19.4819 531.514 19.499C531.626 19.5161 534.085 19.5353 536.993 19.5417ZM522.779 19.5225C522.947 19.5567 523.172 19.5844 523.284 19.5844C523.396 19.5844 523.486 19.5545 523.486 19.5182C523.475 19.4819 523.25 19.4541 522.981 19.4563C522.7 19.4563 522.61 19.4862 522.779 19.5225ZM519.613 19.5182C519.938 19.5353 520.466 19.531 520.78 19.5118C521.095 19.4926 520.836 19.4798 520.185 19.4819C519.545 19.4862 519.287 19.5011 519.613 19.5182ZM523.812 18.9244C528.797 18.9821 550.061 18.9522 549.601 18.8881C549.085 18.8155 541.562 18.7663 533.378 18.7813C529.032 18.7898 523.778 18.7877 521.712 18.7791C516.637 18.7556 518.108 18.8582 523.812 18.9244ZM514.661 18.9223C514.111 18.9287 514.01 18.9436 514.381 18.9628C514.718 18.9799 515.122 18.9757 515.279 18.9522C515.436 18.9308 515.155 18.918 514.661 18.9223ZM512.135 19.5759C513.898 19.6058 515.492 19.5994 516.11 19.5609C517.008 19.5054 516.929 19.499 515.492 19.5011C514.594 19.5033 512.685 19.4947 511.271 19.4798C507.801 19.4456 508.441 19.5139 512.135 19.5759ZM451.384 18.4395C451.709 18.4844 453.303 18.5356 454.92 18.5549C461.511 18.6318 466.529 18.6723 470.268 18.6788C472.435 18.683 474.355 18.7151 474.512 18.7492C474.905 18.8304 481.148 18.8966 490.994 18.9201C495.249 18.9308 499.269 18.9522 499.92 18.9671C501.772 19.012 510.148 18.9927 510.698 18.9415C510.968 18.9159 508.486 18.8731 505.185 18.8454C501.885 18.8176 498.438 18.7898 497.54 18.7813C496.63 18.7727 492.532 18.7556 488.412 18.7428C484.302 18.73 479.553 18.6809 477.869 18.6382C476.185 18.5933 472.154 18.5442 468.898 18.5271C465.642 18.51 461.511 18.4758 459.692 18.4545C452.046 18.3562 450.755 18.3541 451.384 18.4395ZM253.927 3.50446C253.534 3.47242 252.793 3.44893 252.277 3.45106C251.502 3.45533 251.457 3.46601 252.052 3.51514C252.445 3.54718 253.186 3.57068 253.702 3.56854C254.477 3.56427 254.511 3.55359 253.927 3.50446ZM256.633 4.33537C253.826 4.27129 245.652 4.25634 246.775 4.31615C247.292 4.34392 250.155 4.36955 253.119 4.37382C256.453 4.37596 257.8 4.36101 256.633 4.33537ZM279.716 17.4869C280.558 17.5018 281.939 17.5296 282.781 17.5488C283.736 17.5702 284.308 17.5573 284.297 17.5146C284.286 17.4762 283.287 17.4335 282.052 17.4164C280.828 17.3993 279.447 17.3758 278.998 17.3608C278.549 17.3459 278.178 17.363 278.178 17.3971C278.178 17.4313 278.874 17.4719 279.716 17.4869ZM278.796 3.47456C283.803 3.46601 287.126 3.48524 287.328 3.52582C287.677 3.59845 289.203 3.59845 296.816 3.52369C303.058 3.46174 304.877 3.39552 301.542 3.3528C300.251 3.33571 298.59 3.30367 297.849 3.28231C296.984 3.25668 296.378 3.27164 296.164 3.3229C295.951 3.37416 294.851 3.3998 293.055 3.39766C290.719 3.39339 290.45 3.38057 291.337 3.32076C292.179 3.26309 291.741 3.25241 289.215 3.2695C287.463 3.28018 283.646 3.28018 280.716 3.2695C277.336 3.25668 275.506 3.27164 275.686 3.31008C275.865 3.34853 273.934 3.36989 270.454 3.36776C264.806 3.36562 263.459 3.41902 268.04 3.46388C269.443 3.47883 274.271 3.4831 278.796 3.47456ZM271.554 4.35673C271.868 4.33751 271.498 4.32683 270.723 4.3311C269.948 4.33751 269.69 4.35246 270.151 4.36741C270.6 4.38023 271.228 4.37596 271.554 4.35673ZM269.118 5.34571C269.443 5.3628 269.971 5.35853 270.285 5.3393C270.6 5.32008 270.341 5.30726 269.69 5.3094C269.05 5.31367 268.792 5.33076 269.118 5.34571ZM261.809 4.37382C264.537 4.43577 269.207 4.40586 268.837 4.32897C268.669 4.29265 266.659 4.27984 264.234 4.29692C260.663 4.32469 260.248 4.33751 261.809 4.37382ZM244.653 5.24745C245.506 5.36493 248.796 5.41406 253.747 5.38202L258.205 5.35425L255.218 5.28163C250.682 5.17269 243.957 5.15133 244.653 5.24745ZM245.035 3.68602C244.103 3.60913 242.34 3.61981 241.992 3.70311C241.824 3.74369 242.509 3.76505 243.732 3.75651C245.203 3.74797 245.562 3.72874 245.035 3.68602ZM240.589 17.1686C240.982 17.2006 242.149 17.222 243.182 17.2134C244.653 17.2028 244.855 17.1878 244.114 17.1494C242.733 17.0746 239.668 17.0917 240.589 17.1686ZM238.972 6.90073C239.724 6.95627 241.566 6.97977 242.733 6.94773C243.115 6.93705 242.801 6.90928 242.015 6.88792C239.938 6.82597 238.074 6.83452 238.972 6.90073ZM162.468 5.34998C162.861 5.36921 163.176 5.35426 163.164 5.32008C163.164 5.2859 162.839 5.25814 162.446 5.26027C162.064 5.26241 161.75 5.27522 161.75 5.29018C161.761 5.30513 162.075 5.3329 162.468 5.34998ZM153.093 3.96157C152.454 3.96584 152.184 3.98079 152.51 3.99788C152.835 4.01497 153.363 4.0107 153.677 3.99147C154.014 3.97011 153.745 3.9573 153.093 3.96157ZM151.129 4.73694C150.994 4.77112 152.139 4.80103 153.689 4.80316C156.821 4.80957 157.461 4.74549 154.733 4.6985C152.296 4.65578 151.432 4.66646 151.129 4.73694ZM157.09 4.00642C156.316 4.01283 156.057 4.02778 156.518 4.04274C156.978 4.05555 157.607 4.05128 157.921 4.03206C158.247 4.0107 157.865 4.00002 157.09 4.00642ZM165.489 3.95089C164.938 3.9573 164.837 3.97225 165.208 3.99147C165.545 4.00856 165.949 4.00429 166.106 3.98079C166.263 3.9573 165.983 3.94448 165.489 3.95089ZM171.428 4.10896C170.788 4.05342 166.757 4.03206 167.24 4.08759C167.352 4.10041 168.497 4.12391 169.789 4.141C171.462 4.16449 171.933 4.15381 171.428 4.10896ZM167.712 4.88433C162.67 4.77966 161.391 4.78607 163.344 4.89928L164.77 4.98259L162.895 4.97191C160.144 4.95695 153.195 5.14493 154.733 5.19192C156.866 5.25813 163.243 5.18764 164.276 5.08725C165.242 4.99327 166.634 4.98686 170.653 5.05308C174.515 5.11929 171.978 4.97191 167.712 4.88433ZM166.555 16.359L167.678 16.4701C168.834 16.5855 171.989 16.6239 171.978 16.5235C171.978 16.4915 171.304 16.4381 170.485 16.4039C169.665 16.3697 168.453 16.3441 167.779 16.3505L166.555 16.359ZM178.86 5.12784C178.344 5.09152 177.03 5.05094 175.941 5.03812C174.369 5.0189 174.033 5.03385 174.246 5.10648C174.414 5.16415 174.852 5.18124 175.447 5.15133C175.975 5.1257 176.536 5.13638 176.738 5.1791C176.929 5.21969 177.704 5.24104 178.445 5.22396C179.714 5.19619 179.747 5.18978 178.86 5.12784ZM179.298 16.8717L181.184 16.9528C183.374 17.0447 186.551 17.0554 185.855 16.9657C185.608 16.9336 184.025 16.8994 182.352 16.8888L179.298 16.8717ZM189.212 5.49951C188.842 5.50164 188.527 5.47601 188.527 5.44183C188.527 5.40765 187.775 5.36493 186.866 5.34571C185.956 5.32649 185.092 5.28804 184.946 5.256C184.553 5.17269 183.789 5.19192 183.823 5.2859C183.834 5.33076 184.328 5.41193 184.912 5.46533C186.181 5.58281 190.705 5.66825 190.211 5.56359C190.032 5.52727 189.583 5.49737 189.212 5.49951ZM198.216 4.35887C197.318 4.36314 196.948 4.38023 197.397 4.39304C197.846 4.40586 198.587 4.40159 199.036 4.3845C199.485 4.36528 199.115 4.35246 198.216 4.35887ZM210.623 4.33324C210.466 4.3012 209.837 4.27556 209.231 4.27984C208.613 4.28411 206.356 4.23711 204.201 4.17944C199.721 4.05769 199.418 4.05342 199.8 4.13459C199.957 4.16663 201.192 4.23071 202.55 4.2777C205.582 4.37809 211.027 4.41654 210.623 4.33324ZM204.93 5.30726C202.213 5.27308 198.407 5.22609 196.465 5.2026C194.523 5.17697 192.221 5.15988 191.357 5.16415C189.998 5.17056 189.863 5.18551 190.368 5.26454C190.694 5.31581 191.154 5.35853 191.39 5.35639C191.626 5.35426 192.659 5.42474 193.692 5.51232C194.725 5.5999 195.836 5.65543 196.162 5.63621C196.487 5.61699 200.136 5.60203 204.268 5.60417C208.4 5.60631 212.06 5.59135 212.408 5.57213C213.677 5.50591 209.781 5.36707 204.93 5.30726ZM200.204 17.788L199.193 17.7944L200.282 17.8927C201.405 17.9931 202.112 17.9696 201.54 17.85C201.36 17.8137 200.754 17.7859 200.204 17.788ZM205.099 6.3411C205.11 6.39023 211.757 6.68072 212.262 6.65296C212.565 6.638 211.633 6.55256 210.196 6.46499C208.007 6.33042 205.088 6.25993 205.099 6.3411ZM230.046 2.6052C229.496 2.6116 229.395 2.62656 229.766 2.64578C230.102 2.66287 230.507 2.6586 230.664 2.6351C230.821 2.61374 230.54 2.60092 230.046 2.6052ZM232.864 3.68816C229.945 3.60913 220.772 3.60699 220.447 3.68389C219.796 3.83768 226.308 3.87613 233.078 3.75651L234.481 3.73088L232.864 3.68816ZM230.855 6.54188C231.191 6.55897 231.596 6.5547 231.753 6.5312C231.91 6.50771 231.629 6.49489 231.135 6.5013C230.585 6.50771 230.473 6.52266 230.855 6.54188ZM238.051 6.7683C238.355 6.75121 237.625 6.71276 236.423 6.68286C235.222 6.65082 234.234 6.65082 234.245 6.67859C234.257 6.74053 237.243 6.81102 238.051 6.7683ZM228.789 7.02676C230.024 7.12715 234.324 7.16133 234.313 7.06948C234.301 7.02889 233.908 6.99685 233.426 7.00113C232.943 7.00326 231.517 6.99472 230.26 6.9819C228.463 6.96482 228.138 6.97549 228.789 7.02676ZM215.024 6.58887C216.023 6.62091 217.135 6.685 217.494 6.73199C217.853 6.77898 219.728 6.83879 221.637 6.86656C225.308 6.91782 231.169 6.88365 230.596 6.81529C229.766 6.7149 220.492 6.42654 217.539 6.41159C215.731 6.40091 213.722 6.37741 213.07 6.36032C211.038 6.29838 212.913 6.52266 215.024 6.58887ZM215.035 18.7834C216.461 18.824 219.638 18.8667 222.086 18.8774C224.792 18.8881 226.79 18.9287 227.183 18.9778C227.531 19.0227 228.171 19.059 228.609 19.0568C229.047 19.0547 229.878 19.0675 230.462 19.0867C232.078 19.138 231.708 18.997 230.046 18.9265C227.7 18.8283 228.822 18.7514 232.022 18.792C238.298 18.8731 245.428 18.9735 247.684 19.012C252.299 19.0931 253.556 19.0995 253.803 19.0376C253.949 19.0034 253.657 18.9778 253.152 18.9799C252.647 18.9821 251.21 18.95 249.941 18.9052C246.921 18.8005 237.265 18.6168 235.177 18.6275C234.279 18.6318 232.898 18.6275 232.123 18.6211C231.349 18.6125 230.226 18.6061 229.631 18.604C229.036 18.6019 228.676 18.572 228.822 18.5356C228.98 18.4993 228.789 18.4716 228.407 18.4737C228.025 18.4758 227.374 18.4609 226.97 18.4417C226.476 18.4182 226.229 18.4417 226.24 18.51C226.251 18.5997 225.533 18.6168 220.986 18.636C218.089 18.6488 214.968 18.6702 214.07 18.683C212.543 18.7065 212.599 18.7129 215.035 18.7834ZM218.269 18.4694C220.986 18.4801 223.512 18.4972 223.905 18.5079C224.298 18.5186 224.668 18.4993 224.747 18.463C224.893 18.3925 223.995 18.3583 217.842 18.211C215.597 18.1576 211.33 18.0508 208.377 17.976C202.09 17.8158 202.808 17.8222 202.427 17.9119C201.91 18.0358 202.932 18.102 206.536 18.1853C208.445 18.2281 210.758 18.3071 211.667 18.3583C212.599 18.4075 215.54 18.4587 218.269 18.4694ZM210.174 18.4844C210.308 18.4652 209.848 18.4203 209.141 18.3883C207.569 18.3156 206.514 18.3178 206.525 18.3947C206.536 18.4609 209.792 18.542 210.174 18.4844ZM156.428 17.1216C155.653 16.9998 154.822 16.9528 153.161 16.9379C151.937 16.9272 150.927 16.94 150.938 16.9678C150.949 17.0255 157.012 17.3566 157.293 17.3138C157.382 17.2967 157.001 17.2113 156.428 17.1216ZM163.658 18.1255C165.657 18.1405 166.78 18.1597 166.151 18.1682C162.278 18.2216 170.44 18.3776 178.366 18.4011C179.534 18.4053 181.634 18.4331 183.048 18.463C187.292 18.5527 186.574 18.4502 181.791 18.2815C180.702 18.243 179.388 18.2302 178.849 18.2537C178.321 18.275 177.76 18.2686 177.614 18.2366C177.468 18.2046 176.884 18.1811 176.312 18.1853C175.739 18.1896 173.37 18.117 171.035 18.0251C166.645 17.8542 158.932 17.7774 157.719 17.8927C156.754 17.9845 159.538 18.0956 163.658 18.1255ZM158.179 16.9892C157.775 16.9913 157.584 17.0212 157.753 17.0575C157.921 17.0917 158.247 17.1195 158.494 17.1173C158.741 17.1152 158.932 17.0853 158.921 17.049C158.909 17.0127 158.584 16.987 158.179 16.9892ZM159.01 17.6193C159.022 17.7154 161.435 17.7688 161.997 17.6855C162.334 17.6364 162.188 17.615 161.492 17.6193C160.941 17.6214 160.167 17.6086 159.751 17.5894C159.336 17.5702 158.999 17.5851 159.01 17.6193ZM159.415 17.207C159.437 17.363 169.643 17.6364 174.504 17.6086C175.672 17.6022 177.053 17.6342 177.569 17.6791C178.086 17.724 180.399 17.7902 182.711 17.8243C185.226 17.8628 187.225 17.929 187.696 17.9888C188.213 18.055 190.503 18.117 194.556 18.1725C197.902 18.2195 201.136 18.2943 201.742 18.3434C202.348 18.3904 203.392 18.4182 204.066 18.4032C205.627 18.369 206.042 18.2088 204.549 18.2152C203.942 18.2174 202.18 18.1554 200.619 18.0764C199.059 17.9974 197.038 17.9354 196.139 17.9418C195.23 17.9461 193.748 17.9247 192.85 17.8948C191.94 17.8628 189.616 17.8008 187.685 17.756C185.754 17.7111 183.306 17.6406 182.262 17.5979C181.218 17.5552 179.298 17.5125 178.007 17.5018C176.716 17.4911 174.302 17.442 172.652 17.3907C171.001 17.3416 168.992 17.3224 168.183 17.348C167.251 17.3779 165.814 17.3523 164.231 17.2797C161.929 17.1729 159.403 17.1344 159.415 17.207ZM121.499 7.44755C122.802 7.51804 123.621 7.51164 123.61 7.43474C123.599 7.39843 122.914 7.37493 122.072 7.38347C120.803 7.39415 120.714 7.40483 121.499 7.44755ZM113.584 7.60776L114.954 7.57358L113.539 7.49668C111.642 7.39415 108.116 7.35784 108.139 7.44115C108.139 7.53086 111.934 7.64834 113.584 7.60776ZM107.746 14.5263C108.083 14.5434 108.487 14.5391 108.644 14.5156C108.801 14.4922 108.521 14.4793 108.027 14.4857C107.476 14.49 107.375 14.5071 107.746 14.5263ZM105.86 14.4708C106.197 14.4879 106.601 14.4836 106.758 14.4601C106.915 14.4366 106.634 14.4238 106.14 14.4302C105.59 14.4366 105.489 14.4537 105.86 14.4708ZM93.6106 5.41193C91.0956 5.24318 90.3883 5.24318 91.7805 5.41193C92.8696 5.54222 95.6427 5.67252 95.6315 5.59135C95.6315 5.56572 94.7221 5.48669 93.6106 5.41193ZM97.0911 5.94166C96.5746 5.92671 96.148 5.93952 96.1592 5.97156C96.1592 6.0036 96.5859 6.0271 97.1023 6.02496C97.6188 6.02283 98.0342 6.00788 98.0342 5.99506C98.0454 5.98224 97.6188 5.95661 97.0911 5.94166ZM101.75 14.8403C101.986 14.8382 102.514 14.8531 102.929 14.8724C103.345 14.8916 103.67 14.8809 103.67 14.8467C103.67 14.8126 103.131 14.7549 102.48 14.7186C101.503 14.663 101.301 14.6694 101.313 14.7463C101.313 14.7997 101.515 14.8425 101.75 14.8403ZM99.9204 7.56717C100.291 7.64407 103.412 7.71029 103.828 7.64834C103.996 7.62271 103.828 7.57785 103.435 7.54581C102.503 7.47319 99.5499 7.48814 99.9204 7.56717ZM100.01 6.93064C101.661 6.95413 103.109 6.95841 103.221 6.94132C103.783 6.85801 102.2 6.64868 100.841 6.62732C97.877 6.58247 93.1952 6.59101 92.05 6.64441C90.9946 6.69354 91.0395 6.69781 92.5328 6.69781C94.8793 6.69781 99.6734 6.84092 98.1914 6.86656C97.5402 6.87937 98.3598 6.90714 100.01 6.93064ZM93.0829 12.5099C93.8576 12.5313 94.374 12.5185 94.374 12.48C94.3628 12.4437 93.7004 12.4181 92.8808 12.4223C91.1742 12.4309 91.2416 12.4587 93.0829 12.5099ZM92.1285 12.3583C92.9818 12.3519 93.0492 12.339 92.4654 12.292C91.5447 12.2152 91.0507 12.2194 91.062 12.3006C91.062 12.3369 91.5447 12.3625 92.1285 12.3583ZM94.1832 8.02214C98.2812 8.04778 99.0446 8.02001 97.3605 7.9068C96.7655 7.86621 94.9466 7.82777 93.3186 7.81922C90.8823 7.80641 90.3546 7.82136 90.3659 7.90039C90.3771 7.97515 91.2528 8.00292 94.1832 8.02214ZM83.315 8.35964C83.6519 8.37672 84.056 8.37245 84.2132 8.34896C84.3704 8.32546 84.0897 8.31264 83.5957 8.31905C83.0456 8.32546 82.9333 8.34041 83.315 8.35964ZM88.4348 7.57144C88.0418 7.5394 86.4587 7.52232 84.9093 7.53513C82.6414 7.55436 82.3719 7.56504 83.5171 7.59921C85.6953 7.66329 89.2993 7.64193 88.4348 7.57144ZM82.1361 12.2707C82.7873 12.2835 83.5733 12.322 83.8876 12.354C84.202 12.3882 84.9206 12.3924 85.4819 12.3647C86.2791 12.3241 86.3577 12.3027 85.8412 12.26C85.4819 12.2301 84.2357 12.2152 83.0792 12.2258C81.7881 12.2386 81.4176 12.2557 82.1361 12.2707ZM8.05761 11.192C7.66465 11.1728 7.35029 11.1877 7.36152 11.2219C7.36152 11.2561 7.68713 11.2838 8.08009 11.2817C8.46182 11.2796 8.77618 11.2668 8.77618 11.2518C8.76495 11.2369 8.43934 11.2091 8.05761 11.192ZM42.0767 11.9887C40.7182 11.9695 38.8993 11.9567 38.0348 11.9588C36.71 11.9631 36.5416 11.9781 37.0244 12.0528C37.3387 12.1019 38.192 12.1575 38.933 12.1767C39.6965 12.1959 40.3814 12.2621 40.5273 12.3326C40.7294 12.433 41.1449 12.4523 42.683 12.4309C44.2436 12.4095 44.6253 12.3775 44.8387 12.2493C45.1642 12.0464 44.9846 12.0293 42.0767 11.9887ZM72.6041 12.2173C72.9858 12.2664 73.3788 12.2643 73.985 12.2109C74.7373 12.1447 74.6699 12.1361 73.4573 12.1425C72.4469 12.1489 72.2224 12.1682 72.6041 12.2173ZM63.1169 9.17132C63.8916 9.18414 65.0592 9.21191 65.7104 9.23113C66.8556 9.26531 66.8444 9.26317 65.4522 9.10724C63.9927 8.94491 60.4897 8.89151 60.5121 9.03035C60.5234 9.10724 61.0623 9.13715 63.1169 9.17132ZM59.7487 9.05384C59.8946 9.03248 59.8946 8.98976 59.7487 8.95986C59.4118 8.88723 58.1319 8.89791 58.1432 8.97054C58.1656 9.04316 59.3894 9.10724 59.7487 9.05384Z" fill="#040404"/>
</svg>
