<svg width="475" height="1080" viewBox="0 0 475 1080" fill="none" xmlns="http://www.w3.org/2000/svg">
<g opacity="0.8">
<path opacity="0.8" d="M393.953 952.317C393.994 950.514 393.871 949.773 393.687 950.66C393.504 951.561 393.463 953.03 393.616 953.932C393.759 954.848 393.912 954.121 393.953 952.317Z" fill="black"/>
<path opacity="0.8" d="M394.25 958.207C394.024 958.513 393.973 959.312 394.157 959.996C394.352 960.752 394.516 960.534 394.578 959.443C394.619 958.469 394.475 957.902 394.25 958.207Z" fill="black"/>
<path opacity="0.8" d="M466.195 562.28C466.011 563.429 465.971 565.334 466.103 566.497C466.236 567.661 466.389 566.716 466.441 564.403C466.492 562.077 466.379 561.131 466.195 562.28Z" fill="black"/>
<path opacity="0.8" d="M466.021 479.753C466.175 480.669 466.328 479.927 466.359 478.124C466.399 476.321 466.277 475.579 466.093 476.466C465.909 477.368 465.878 478.837 466.021 479.753Z" fill="black"/>
<path opacity="0.8" d="M466.996 465.72C466.812 466.869 466.771 468.774 466.904 469.937C467.037 471.1 467.19 470.155 467.241 467.843C467.292 465.531 467.18 464.571 466.996 465.72Z" fill="black"/>
<path opacity="0.8" d="M469.446 774.204C469.333 782.129 469.456 785.605 469.774 783.046C470.328 778.508 470.462 762.381 469.949 761.625C469.774 761.363 469.549 767.02 469.446 774.204Z" fill="black"/>
<path opacity="0.8" d="M465.703 554.762C465.857 555.678 466.01 554.936 466.04 553.133C466.081 551.33 465.959 550.588 465.775 551.475C465.591 552.362 465.55 553.846 465.703 554.762Z" fill="black"/>
<path opacity="0.8" d="M465.527 533.166C465.332 533.792 465.291 535.057 465.435 535.973C465.589 536.889 465.743 536.38 465.794 534.839C465.845 533.283 465.732 532.541 465.527 533.166Z" fill="black"/>
<path opacity="0.8" d="M390.67 156.464C390.732 162.659 390.691 178.059 390.578 190.682C390.465 203.319 390.434 217.033 390.506 221.163C390.578 225.293 390.639 237.741 390.629 248.836C390.619 269.254 390.691 275.347 391.06 286.37C391.173 289.729 391.419 299.516 391.614 308.125C391.799 316.734 392.086 324.34 392.24 325.038C392.394 325.736 392.66 334.316 392.835 344.132C393.009 353.933 393.358 365.974 393.614 370.889C393.861 375.805 394.23 386.362 394.425 394.375C394.62 402.373 394.969 414.414 395.184 421.133C395.399 427.851 395.625 446.218 395.666 461.953C395.707 477.688 395.789 493.088 395.841 496.185C395.892 499.283 395.687 520.791 395.399 544C394.661 602.998 395.02 628.389 397 655.67C397.41 661.356 398.282 677.018 398.928 690.455C399.575 703.892 400.221 715.526 400.354 716.311C400.488 717.097 400.693 721.314 400.795 725.705C400.908 730.097 401.237 742.56 401.544 753.408C401.842 764.257 402.16 777.141 402.252 782.042C402.345 786.943 402.56 797.501 402.734 805.513C402.909 813.512 402.796 825.305 402.488 831.704C402.18 838.102 402.18 843.599 402.488 843.89C402.796 844.196 403.247 845.388 403.473 846.566C403.801 848.195 403.627 848.689 402.765 848.646C401.873 848.602 401.719 849.14 402.016 851.19C402.221 852.616 402.314 864.118 402.221 876.756C402.129 889.393 402.201 903.746 402.386 908.647C402.57 913.548 402.488 924.309 402.191 932.554C401.903 940.8 401.503 954.382 401.308 962.758C401.114 971.135 400.683 977.97 400.354 977.955C400.026 977.941 399.667 987.073 399.554 998.765C399.37 1016.87 399.226 1019.41 398.415 1018.18C397.903 1017.39 397.215 1015.27 396.897 1013.45C396.579 1011.63 396.271 1010.82 396.22 1011.66C396.169 1012.49 396.805 1016.45 397.646 1020.43C398.939 1026.61 399.123 1029.43 398.908 1039.6C398.426 1061.66 399.647 1118.14 400.631 1119.04C403.76 1121.94 404.643 1123.22 405.72 1126.39C407.176 1130.69 407.771 1130.94 410.839 1128.51C413.516 1126.39 414.122 1124.96 415.322 1117.88C415.845 1114.81 416.635 1111.47 417.076 1110.45C417.589 1109.27 418.01 1102.89 418.235 1092.77C418.512 1080.25 418.779 1076.84 419.507 1076.54C420.236 1076.23 420.318 1077.02 419.887 1080.22C419.497 1083.17 419.548 1083.91 420.082 1082.92C420.482 1082.16 420.851 1080.26 420.892 1078.69C420.933 1077.12 421.303 1075.39 421.713 1074.85C422.185 1074.24 422.585 1068.57 422.801 1059.65C423.077 1047.93 423.303 1045.53 424.052 1045.97C425.098 1046.58 425.345 1044.6 424.401 1043.21C424.062 1042.7 423.703 1037.01 423.621 1030.55C423.498 1021.58 423.642 1019.17 424.206 1020.27C424.791 1021.39 424.883 1020.58 424.637 1016.62C424.278 1010.73 425.447 992.192 426.176 992.221C426.442 992.236 426.822 996.991 426.996 1002.81C427.345 1013.87 427.345 1018.03 427.027 1039.85C426.832 1053.08 426.842 1053.18 428.34 1053.04L429.848 1052.88L430.3 1083.37C430.813 1117.6 431.623 1129.69 433.747 1134.39C434.526 1136.1 435.008 1136.79 434.834 1135.91C433.367 1128.73 432.464 1118.14 432.126 1104.09C432.033 1100.23 431.849 1092.4 431.715 1086.73C431.346 1071.13 432.813 1021.1 433.88 1013.16C434.865 1005.8 435.244 1000.45 435.603 988.629L435.829 981.343L438.342 981.809C440.548 982.216 440.866 982.594 440.989 984.994C441.061 986.491 440.62 991.363 440.004 995.828C439.225 1001.44 439.091 1004.25 439.563 1004.95C439.974 1005.56 440.076 1010.36 439.83 1017.2C439.563 1024.58 439.666 1028.46 440.127 1028.49C440.517 1028.5 440.856 1027.78 440.876 1026.88C440.897 1025.97 441.235 1014.34 441.625 1001L442.313 976.69L445.554 974.494C448.458 972.531 448.909 971.789 449.853 967.528C450.909 962.744 452.007 947.082 453.012 922.52C453.669 906.553 454.582 897.537 455.587 897.115C456.09 896.911 456.439 899.631 456.624 905.069C456.962 915.176 456.193 939.127 455.557 938.531C454.91 937.935 454.244 942.443 454.828 943.417C455.69 944.828 456.367 959.995 456.111 971.891C455.967 978.333 456.039 990.36 456.275 998.62C456.5 1006.88 456.675 1027.36 456.654 1044.12C456.634 1060.89 456.685 1075.77 456.777 1077.18C457.024 1081.31 457.629 1081.18 458.296 1076.84C459.168 1071.16 459.886 1025.89 459.229 1018.67C458.921 1015.37 458.778 1008.48 458.891 1003.36C459.004 998.242 458.973 992.57 458.809 990.767C458.203 983.888 459.014 929.791 459.742 928.642C460.522 927.406 461.281 909.112 460.789 903.412C460.501 900.125 460.604 899.892 462.173 899.951C463.097 899.994 463.876 900.343 463.897 900.736C464.153 905.535 464.164 914.318 463.928 938.022C463.661 965.521 463.876 971.164 465.097 968.343C465.672 967.019 467.303 951.037 467.847 941.469C468.431 931.115 469.601 873.178 469.211 873.498C468.996 873.673 469.006 865.107 469.242 854.462C469.888 825.32 469.611 801.311 468.575 798.242C467.6 795.348 466.462 773.317 466.154 751.503C466.092 747.373 465.836 737.237 465.579 728.977C465.323 720.717 465.149 713.315 465.179 712.545C465.22 711.774 464.923 706.059 464.533 699.864C463.343 681.075 462.338 665.457 461.825 658.011C461.558 654.129 461.26 646.727 461.168 641.579C461.076 636.416 460.706 626.266 460.337 619.038C459.342 599.203 459.281 578.044 460.009 520.093C460.081 514.741 462.286 494.251 463.148 490.979C463.774 488.594 464.297 483.097 464.451 477.324C464.584 472.016 464.851 467.348 465.046 466.941C465.241 466.534 465.641 462.898 465.938 458.855C466.236 454.813 466.708 451.294 466.985 451.032C467.785 450.276 469.252 445.564 469.293 443.63C469.314 442.67 469.693 441.725 470.134 441.55C470.75 441.288 470.822 438.031 470.463 427.648C470.032 415.302 469.734 378.277 470.021 373.769C470.76 362.426 472.709 344.364 473.007 346.24C473.212 347.535 473.407 355.562 473.438 364.055C473.468 372.547 473.673 379.731 473.879 380.022C474.433 380.764 474.351 343.114 473.776 335.959C473.509 332.6 473.212 325.198 473.109 319.526C472.914 307.936 472.237 291.969 471.519 281.673C471.252 277.906 471.099 272.235 471.17 269.079C471.242 265.924 471.058 260.557 470.75 257.14C470.452 253.737 469.96 248.197 469.662 244.823C469.365 241.464 468.913 234.469 468.667 229.306C468.411 224.144 467.98 217.149 467.693 213.79C467.416 210.43 466.964 203.232 466.708 197.808C466.451 192.384 465.99 185.607 465.692 182.757C465.395 179.906 465.056 174.831 464.933 171.472C464.82 168.112 464.451 157.337 464.123 147.521C463.794 137.705 463.281 127.132 462.984 124.02C462.686 120.908 462.43 112.678 462.399 105.712C462.327 88.7555 461.907 79.434 461.209 79.4049C460.081 79.3612 458.88 74.0388 458.542 67.5675C458.357 63.9465 458.111 59.1039 457.988 56.8063C457.762 52.3563 457.208 50.3641 457.136 53.7524C457.116 54.8722 456.788 55.7737 456.418 55.7592C456.049 55.7446 455.782 54.0432 455.834 51.9783C455.895 49.3461 455.628 48.2118 454.951 48.1827C454.418 48.1537 453.802 47.1793 453.566 46.016C453.33 44.8525 452.869 43.6165 452.53 43.2965C452.192 42.9766 451.709 38.105 451.463 32.4772C451.217 26.8492 450.776 21.8031 450.478 21.2795C450.181 20.7416 449.689 16.0735 449.381 10.911C448.529 -3.3695 447.77 -8.63379 446.242 -11.0914C445.134 -12.8656 444.754 -15.265 444.375 -22.8998C444.005 -30.3018 443.677 -32.4104 442.949 -32.2213C442.425 -32.0905 441.307 -32.2505 440.456 -32.585C439.122 -33.1084 438.927 -33.7919 438.999 -37.631C439.112 -43.8842 438.271 -48.974 436.691 -51.4607C435.942 -52.6387 435.357 -54.6746 435.388 -55.9687C435.46 -59.1244 434.259 -64.3015 433.459 -64.3306C432.423 -64.3741 431.038 -70.511 431.531 -72.8523C432.023 -75.1791 430.474 -77.593 428.422 -77.6803C427.15 -77.7385 426.124 -74.2047 426.955 -72.6342C427.673 -71.2672 428.043 -57.205 427.376 -56.6669C427.078 -56.4342 425.581 -57.9611 424.052 -60.0552C421.036 -64.1852 419.343 -64.3887 421.087 -60.4042C422.287 -57.6556 422.472 -54.2528 422.534 -32.4976C422.575 -19.2059 422.462 -17.6645 421.59 -18.7407C421.046 -19.4097 420.431 -21.0529 420.215 -22.3907C420.01 -23.7286 419.702 -24.6448 419.538 -24.4412C419.374 -24.223 419.528 -22.4634 419.866 -20.5002C420.585 -16.3848 419.907 -14.7416 417.261 -14.1598C414.142 -13.4618 413.034 -16.0359 412.439 -25.401C412.142 -30.0546 411.629 -34.6207 411.311 -35.537C410.623 -37.4711 409.444 -37.8055 409.382 -36.0896C409.29 -33.8937 407.443 -38.6199 407.494 -40.9176C407.535 -42.8372 407.382 -43.0116 406.51 -42.0664C405.945 -41.4556 405.443 -39.6233 405.402 -38.0091C405.268 -32.614 404.396 -28.4258 403.206 -27.4661C399.934 -24.8048 395.522 -30.6507 394.332 -39.2162L393.676 -43.986L392.835 -40.9466C392.373 -39.2743 391.388 -36.8894 390.639 -35.6533C389.46 -33.6901 389.285 -32.2068 389.316 -24.2667C389.418 -0.868279 389.675 11.0274 390.311 21.0033C390.701 27.0819 390.886 50.9166 390.742 75.4203C390.485 120.036 390.475 136.759 390.67 156.464ZM431.007 1027.06C430.31 1035.54 429.633 1044.49 429.52 1046.93C429.397 1049.37 429.017 1051.36 428.669 1051.35C427.745 1051.31 430.412 1006.59 432.197 992.425C433.326 983.394 432.413 1010.01 431.007 1027.06ZM426.299 986.535C427.109 988.411 427.048 991.261 426.196 991.218C425.827 991.203 425.56 989.822 425.601 988.149C425.652 985.837 425.827 985.444 426.299 986.535ZM430.689 827.996C430.566 826.57 430.618 824.462 430.802 823.313C430.987 822.164 431.09 823.342 431.028 825.916C430.956 828.49 430.813 829.421 430.689 827.996ZM463.928 896.795C463.876 898.976 463.784 899.063 462.861 897.696C461.855 896.199 462.132 894.308 463.353 894.366C463.702 894.381 463.959 895.472 463.928 896.795ZM463.415 843.25C463.61 882.791 463.271 891.123 461.414 893.566C460.214 895.137 460.542 812.61 461.753 810.065C462.389 808.713 463.343 827.559 463.415 843.25ZM430.854 746.181C431.346 746.923 431.418 751.198 431.315 774.349C431.274 783.118 431.264 796.613 431.284 804.35C431.305 812.261 431.11 817.351 430.823 815.984C430.546 814.646 430.207 802.183 430.053 788.281C429.91 774.378 429.653 759.284 429.499 754.732C429.243 747.184 429.674 744.436 430.854 746.181ZM430.669 729.632C430.648 730.592 430.761 733.907 430.925 737.019C431.12 740.786 430.966 742.88 430.453 743.287C429.961 743.68 429.674 742.967 429.653 741.266C429.633 739.811 429.581 736.205 429.52 733.238C429.458 730.184 429.694 727.858 430.064 727.872C430.412 727.887 430.689 728.687 430.669 729.632ZM430.279 717.096C430.946 721.314 430.843 726.025 430.084 725.996C429.694 725.982 429.499 723.466 429.623 720.121C429.787 715.453 429.92 714.842 430.279 717.096ZM424.945 647.934C425.776 647.963 426.155 654.812 425.447 657.066C425.119 658.128 424.955 657.328 424.975 654.812C424.996 652.66 424.842 650.231 424.637 649.402C424.442 648.588 424.575 647.919 424.945 647.934ZM425.016 643.716C424.965 645.781 424.811 646.508 424.678 645.331C424.544 644.153 424.585 642.466 424.77 641.579C424.955 640.706 425.068 641.666 425.016 643.716ZM423.816 575.92C423.734 578.625 423.98 590.768 424.36 602.911C424.739 615.054 425.15 627.574 425.273 630.73C425.406 634.06 425.211 636.707 424.821 637.027C424.206 637.521 423.129 626.193 422.77 615.504C421.651 582.523 421.826 570.918 423.406 570.991C423.703 570.991 423.898 573.216 423.816 575.92ZM423.703 542.124C423.765 551.039 423.908 560.52 424.021 563.181C424.237 568.3 423.129 570.932 422.626 566.483C422.021 561.116 422.298 524.717 422.944 525.313C423.293 525.648 423.642 533.21 423.703 542.124ZM423.385 446.713C423.334 448.254 423.18 448.763 423.026 447.847C422.872 446.931 422.913 445.666 423.118 445.04C423.313 444.415 423.436 445.171 423.385 446.713ZM423.765 285.57C424.124 286.108 424.401 293.467 424.391 301.945C424.35 319.701 423.58 317.985 422.729 298.266C422.216 286.137 422.421 283.563 423.765 285.57Z" fill="black"/>
<path opacity="0.8" d="M437.532 1025C437.45 1021.19 437.306 1021.9 436.752 1028.72C435.819 1040.18 435.439 1053.98 436.075 1053.15C436.362 1052.78 436.814 1049.46 437.081 1045.77C437.583 1038.83 437.706 1033.07 437.532 1025Z" fill="black"/>
<path opacity="0.8" d="M395.789 999.754C396.477 1005.09 396.251 987.131 395.553 980.994C395.133 977.272 395.051 978.333 395.164 986.142C395.246 991.537 395.523 997.674 395.789 999.754Z" fill="black"/>
<path opacity="0.8" d="M463.733 978.101C463.507 978.406 463.456 979.206 463.641 979.889C463.835 980.646 464 980.428 464.061 979.337C464.102 978.348 463.959 977.795 463.733 978.101Z" fill="black"/>
<path opacity="0.8" d="M463.548 983.932C463.055 988.702 462.655 999.216 462.983 998.78C463.189 998.518 463.568 995.493 463.835 992.061C464.286 986.172 464.04 979.133 463.548 983.932Z" fill="black"/>
</g>
<path d="M446.924 342.653C449.691 314.037 453.216 253.316 454.292 215.613C454.782 198.281 455.762 173.024 456.458 159.487C458.292 123.456 460.062 60.4379 459.73 42.2914C459.193 12.5999 453.707 -38.2479 450.244 -45.6055C449.39 -47.4375 450.039 -49.9966 451.794 -51.5961C457.659 -57.0051 458.054 -62.6177 452.995 -68.9282C450.355 -72.2144 447.319 -74.9043 446.244 -74.9043C445.185 -74.9043 441.96 -76.6056 439.082 -78.6849C429.027 -85.9696 406.023 -85.9987 333.328 -78.8157C304.269 -75.9513 192.886 -74.8897 176.57 -77.3326C169.14 -78.4376 156.318 -79.1792 148.08 -78.961C87.9228 -77.3907 -111.301 -79.7899 -131.396 -82.3199C-141.404 -83.5849 -186.573 -85.0826 -231.743 -85.6641C-319.426 -86.7983 -323.457 -86.4786 -345.228 -76.7946C-350.003 -74.6717 -354.809 -72.9413 -355.9 -72.9413C-356.991 -72.9413 -359.172 -71.5164 -360.753 -69.7715C-362.334 -68.0267 -365.259 -66.0346 -367.283 -65.3367C-369.291 -64.6532 -377.275 -58.9242 -385.022 -52.6282C-396.2 -43.5405 -399.109 -40.0074 -399.109 -35.5289C-399.109 -30.0472 -394.429 -23.6929 -390.398 -23.6929C-389.307 -23.6929 -388.406 -22.079 -388.406 -20.087C-388.406 -18.0949 -387.694 -15.8266 -386.856 -15.0414C-386.002 -14.2562 -385.006 -9.89409 -384.658 -5.35747C-383.504 9.44465 -383.821 140.483 -385.243 242.208C-386.018 296.923 -386.619 351.871 -386.619 364.318C-386.603 376.779 -387.473 396.191 -388.564 407.474C-389.923 421.738 -389.813 428.747 -388.216 430.535C-386.84 432.062 -386.524 435.697 -387.457 439.579C-388.311 443.142 -389.291 458.031 -389.639 472.644C-391.172 538.018 -392.959 578.76 -394.698 587.862C-396.69 598.259 -396.737 621.262 -394.761 623.065C-394.113 623.661 -394.366 630.597 -395.315 638.492C-398.192 662.513 -398.65 680.238 -396.5 684.076C-395.141 686.504 -395.251 688.467 -396.801 689.892C-399.694 692.568 -399.899 701.103 -397.054 701.103C-395.71 701.103 -395.726 702.95 -397.101 706.279C-398.287 709.129 -398.666 713.172 -397.939 715.251C-397.227 717.316 -397.575 720.093 -398.729 721.387C-399.978 722.812 -400.2 729.646 -399.283 738.53C-397.496 755.775 -398.145 812.861 -400.168 817.615C-400.943 819.404 -400.532 821.44 -399.283 822.167C-397.654 823.083 -397.686 824.667 -399.362 827.546C-400.69 829.815 -401.496 838.655 -401.18 847.612C-400.121 878.423 -402.366 949.991 -404.484 953.234C-404.832 953.772 -405.797 966.189 -406.635 980.802C-407.472 995.43 -408.642 1008.15 -409.259 1009.08C-409.876 1010 -410.65 1037.48 -410.998 1070.14C-411.108 1080.94 -405.837 1134.3 -409.957 1137.51C-409.986 1137.53 -410.044 1138.44 -410.044 1138.44C-407.329 1147.92 -412.987 1161.97 -405.519 1162.58C-403.147 1161.32 -357.37 1163.34 -348.817 1163.53C-310.129 1164.35 -251.047 1167.98 -244.944 1169.89C-240.185 1171.38 -224.675 1172.17 -202.431 1172.01L-167.427 1171.78L-159.806 1177.93C-153.135 1183.32 -151.142 1183.92 -143.727 1182.83C-134.953 1181.53 -122.747 1176.59 -120.502 1173.4C-119.791 1172.4 -99.0797 1171.15 -74.4632 1170.64C-49.8468 1170.12 -26.3371 1168.84 -22.2106 1167.79C-18.0842 1166.75 -0.060579 1164.84 17.8523 1163.55C43.5122 1161.71 57.5042 1161.74 83.7807 1163.72C83.8598 1163.72 83.923 1163.74 84.0021 1163.74C183.891 1171.22 319.494 1152.31 409.027 1167.85C420.664 1169.87 424.158 1169.74 432.932 1167.01C438.592 1165.23 444.568 1164.26 446.197 1164.84C450.466 1166.35 459.651 1156.44 459.604 1150.37C459.572 1147.55 458.529 1139.48 457.28 1132.44C456.031 1125.41 454.624 1110.34 454.134 1098.96C453.659 1087.59 452.79 1075.62 452.205 1072.36C450.877 1065.03 450.213 1059.54 445.391 1015.25C442.165 985.703 441.549 962.409 441.691 875.399C441.786 817.979 442.592 766.084 443.477 760.079C444.616 752.445 444.047 744.39 441.596 733.339C438.608 719.904 438.023 699.853 437.628 599.509C437.169 482.968 438.402 430.186 442.687 385.94C443.936 373.537 445.817 354.023 446.924 342.653Z" fill="black"/>
</svg>
