<svg width="644" height="19" viewBox="0 0 644 19" fill="none" xmlns="http://www.w3.org/2000/svg">
<g opacity="0.8">
<path opacity="0.8" d="M424.432 14.1955C419.817 14.3755 413.284 14.6265 409.899 14.7591C406.513 14.8917 400.857 15.0528 397.321 15.1238C388.92 15.2849 389.334 15.2754 380.28 15.5454L372.455 15.7775L377.208 15.8628C384.932 15.9954 391.892 15.8959 400.205 15.5312C404.507 15.3417 410.588 15.1144 413.711 15.0244C421.874 14.7923 436.846 14.1386 437.336 13.9918C438.05 13.7834 433.147 13.8592 424.432 14.1955Z" fill="black"/>
<path opacity="0.8" d="M387.729 18.8989C387.277 18.9512 387.415 18.9892 388.067 18.9988C388.656 19.0083 388.982 18.9655 388.794 18.9131C388.606 18.8561 388.13 18.8513 387.729 18.8989Z" fill="black"/>
<path opacity="0.8" d="M282.056 17.2553C281.868 17.1982 281.392 17.1935 280.99 17.241C280.539 17.2934 280.677 17.3314 281.329 17.3409C281.906 17.3504 282.244 17.3124 282.056 17.2553Z" fill="black"/>
<path opacity="0.8" d="M372.744 16.4358C367.678 16.5637 359.627 16.7153 354.862 16.7674C339.413 16.9427 327.989 17.0516 316.026 17.1463C297.593 17.2884 292.79 17.3689 293.116 17.5205C293.279 17.601 292.953 17.7052 292.402 17.7573C291.273 17.8615 261.504 18.0036 238.819 18.0131C230.781 18.0178 223.797 18.0652 223.308 18.1173C221.953 18.2689 224.512 18.8088 226.919 18.8751C227.973 18.9036 239.785 18.9178 253.152 18.9036C279.41 18.8751 305.794 18.6146 326.923 18.1741C331.074 18.0889 336.842 18.0178 339.739 18.0178C342.636 18.0178 347.163 17.9468 349.796 17.8568C352.429 17.7668 358.097 17.6152 362.386 17.5158C366.674 17.4163 370.336 17.2695 370.511 17.1842C370.888 16.9995 377.521 16.6963 381.258 16.6916C383.239 16.6869 383.916 16.6253 383.916 16.4406C383.916 16.1422 384.217 16.1422 372.744 16.4358Z" fill="black"/>
<path opacity="0.8" d="M368.505 16.0148C369.094 16.0243 369.42 15.9815 369.232 15.9292C369.044 15.8721 368.567 15.8673 368.166 15.9149C367.715 15.9672 367.853 16.01 368.505 16.0148Z" fill="black"/>
<path opacity="0.8" d="M363.514 12.3399C364.743 12.3399 365.307 12.3112 364.78 12.2681C364.241 12.225 363.238 12.2249 362.548 12.2633C361.859 12.3016 362.285 12.3351 363.514 12.3399Z" fill="black"/>
<path opacity="0.8" d="M56.993 13.4613C56.6795 13.4044 56.4287 13.4755 56.4287 13.6176C56.4287 13.9113 56.7673 13.9539 57.2438 13.7218C57.4194 13.6318 57.3065 13.5181 56.993 13.4613Z" fill="black"/>
<path opacity="0.8" d="M3.48572 6.96294C3.10953 6.91536 2.35714 6.91536 1.80539 6.95817C1.26618 7.00099 1.56712 7.03904 2.49507 7.03904C3.42301 7.0438 3.86192 7.01051 3.48572 6.96294Z" fill="black"/>
<path opacity="0.8" d="M30.6224 5.79793C30.1709 5.85026 30.3089 5.88832 30.9609 5.89783C31.5503 5.90735 31.8763 5.86454 31.6882 5.81222C31.5001 5.7599 31.0236 5.75037 30.6224 5.79793Z" fill="black"/>
<path opacity="0.8" d="M21.7816 5.74556C24.0889 5.73135 25.6438 5.67925 25.2426 5.63189C24.6908 5.56557 24.7661 5.48505 25.5184 5.30032C26.4715 5.06823 26.4715 5.05876 25.4056 5.18191C24.2896 5.30506 20.7533 5.41872 8.22617 5.73134C4.61473 5.82133 1.21649 5.97291 0.677278 6.0629C-0.213041 6.21921 -0.22558 6.23341 0.63966 6.23815C1.15379 6.24289 2.25726 6.16711 3.08488 6.07238C4.45171 5.92081 10.2576 5.81661 21.7816 5.74556Z" fill="black"/>
<path opacity="0.8" d="M437.849 0.560348C439.078 0.560348 439.642 0.531603 439.116 0.488503C438.576 0.445404 437.573 0.445428 436.883 0.483739C436.181 0.526839 436.62 0.560348 437.849 0.560348Z" fill="black"/>
<path opacity="0.8" d="M630.485 5.93973C625.494 5.87816 620.704 5.61293 622.66 5.50872C623.274 5.47557 624.616 5.38558 625.644 5.30506C627.249 5.18191 627.362 5.15349 626.484 5.09665C625.92 5.0635 624.741 5.03033 623.876 5.02559C622.86 5.02086 622.384 4.97823 622.534 4.91192C622.71 4.83614 624.277 4.80771 628.027 4.81245C631.087 4.81718 633.444 4.78404 633.657 4.73194C634.109 4.623 629.97 4.28199 627.35 4.21568C626.309 4.18726 624.466 4.10198 623.249 4.02146C621.393 3.89832 621.193 3.86043 621.995 3.79412C623.763 3.63782 623.049 3.52888 620.716 3.59046C618.221 3.65677 617.506 3.50046 619.876 3.41047C621.393 3.34889 621.519 3.311 620.741 3.11681C620.39 3.03155 620.528 2.95574 621.168 2.8847C621.682 2.82786 621.958 2.75209 621.77 2.72367C621.481 2.67631 612.979 2.55315 604.502 2.47263C599.875 2.42526 594.985 2.30687 594.671 2.23109C594.508 2.18846 593.894 2.15529 593.317 2.15529C592 2.15529 591.461 2.02269 592.101 1.87585C586.596 1.8948 581.091 1.94215 575.586 2.03688C575.21 2.04635 574.846 2.05582 574.47 2.0653C567.786 2.1174 559.384 2.22159 554.143 2.3258C551.823 2.37316 547.146 2.43947 543.76 2.47263C540.374 2.50578 535.183 2.56737 532.261 2.60052C529.327 2.63368 520.499 2.69526 512.636 2.73316C496.134 2.81368 484.773 2.94155 475.594 3.14049C471.481 3.23048 465.111 3.20679 458.114 3.07417C451.016 2.94155 447.091 2.92733 447.066 3.03627C447.041 3.131 445.963 3.1926 444.659 3.17839L442.289 3.14997L444.132 3.34415C445.148 3.45309 445.837 3.57151 445.687 3.61413C445.035 3.78465 423.955 3.63309 402.513 3.2968C389.923 3.1026 378.737 2.96995 377.659 3.00311C376.568 3.03626 369.521 3.03154 361.984 2.98417C338.033 2.84208 335.814 2.8563 334.409 3.17364C333.72 3.32995 332.804 3.4531 332.378 3.44363C331.952 3.43415 328.139 3.47204 323.914 3.52888C319.675 3.58572 311.813 3.63307 306.421 3.63781C289.78 3.65676 276.739 3.74202 269.692 3.87938C265.98 3.95042 259.811 4.03094 255.986 4.05462C252.161 4.07831 248.813 4.13515 248.55 4.17778C248.287 4.2204 241.089 4.15882 232.574 4.04514C216.674 3.832 192.046 3.85095 153.75 4.10672C150.74 4.12566 120.758 4.1162 107.002 4.08778C101.747 4.07831 74.2478 3.71833 41.1053 3.22574C23.0231 2.95576 16.6654 2.97943 12.5273 3.32993C8.52713 3.67095 5.30442 3.71833 4.37648 3.45782C3.92505 3.33467 3.37332 3.28258 3.13506 3.34415C2.89681 3.40573 3.29808 3.60939 4.03792 3.78938C4.76523 3.9741 5.7684 4.24409 6.26999 4.38618C8.17603 4.94982 10.383 5.1961 15.1983 5.37609C17.9445 5.48029 22.7597 5.65555 25.8946 5.77397C29.0296 5.88764 31.7131 6.04394 31.851 6.12446C32.2774 6.36128 28.7913 6.43234 25.7692 6.24761C22.233 6.02974 5.32953 5.68397 5.30445 5.82606C5.25429 6.07709 18.12 6.71179 28.8666 6.9865C35.2994 7.15228 44.9425 7.45541 50.2844 7.66382C61.3319 8.09484 78.875 8.43587 125.435 9.11792C143.317 9.37842 157.938 9.65313 157.925 9.72891C157.888 9.92785 153.323 9.98941 146.865 9.871C143.128 9.80469 141.16 9.82838 141.36 9.93732C141.536 10.032 144.232 10.1552 147.542 10.2168C151.931 10.2973 153.348 10.3731 153.148 10.5246C152.245 11.1877 135.755 11.2446 127.504 10.6146C123.077 10.2783 119.968 10.1599 101.948 9.6484C97.8099 9.52999 93.6468 9.37369 92.6937 9.29791C91.2266 9.17949 90.888 9.21263 90.4993 9.51577C90.0729 9.83785 89.7343 9.86153 86.474 9.75259C81.6211 9.59155 81.9096 9.79051 86.8502 10.0179C89.0447 10.1173 91.1263 10.2831 91.4774 10.3825C92.5433 10.6809 93.9352 10.7378 111.089 11.1546C127.78 11.5667 130.94 11.7325 127.19 11.9977C125.748 12.1019 129.548 12.1919 141.411 12.334C164.095 12.604 190.315 13.0634 190.554 13.1913C190.88 13.3665 188.472 13.4565 184.861 13.4044C182.089 13.3665 181.738 13.3902 182.842 13.5418C184.271 13.7407 191.344 13.7454 193.225 13.5465C193.852 13.4802 197.15 13.3997 200.535 13.3665C206.592 13.3097 206.742 13.3144 208.987 13.7644C211.069 14.1765 212.31 14.2617 222.793 14.6643C234.255 15.1096 248.537 15.7963 250.092 15.9811C250.544 16.0332 246.13 15.9621 240.286 15.82C234.443 15.678 229.289 15.6258 228.837 15.6969C228.311 15.7821 230.267 15.8816 234.142 15.9669C237.515 16.0427 245.152 16.2368 251.133 16.4026C266.482 16.8242 276.589 16.9947 277.166 16.8289C277.454 16.7484 276.777 16.7152 275.56 16.7484C274.407 16.7815 273.341 16.7389 273.19 16.6584C272.764 16.4168 276.451 16.4168 290.809 16.6442C298.32 16.7626 304.665 16.8289 304.903 16.791C305.142 16.7531 308.552 16.7531 312.477 16.7863C322.083 16.8763 337.419 16.8621 347.35 16.7484C351.827 16.6963 358.134 16.6631 361.357 16.6726C364.592 16.6821 367.865 16.6679 368.643 16.6394C369.42 16.611 375.226 16.5636 381.546 16.5352C387.866 16.5068 393.923 16.4689 395.001 16.4452C396.08 16.4216 402.776 16.3268 409.886 16.2274C416.983 16.1279 425.962 15.9905 429.824 15.9242C433.686 15.8532 439.379 15.7585 442.464 15.7158C448.972 15.6164 461.687 15.318 464.973 15.1806C467.205 15.0906 467.381 15.029 466.804 14.5033C466.565 14.2807 467.33 14.2001 471.193 14.0486C473.763 13.9491 477.011 13.8686 478.39 13.8733C479.77 13.8781 481.3 13.8402 481.764 13.7833C482.24 13.7265 485.538 13.6081 489.099 13.5228C492.661 13.4328 496.711 13.3192 498.115 13.2623C499.507 13.2055 502.341 13.1439 504.398 13.125C507.056 13.1013 508.247 13.016 508.536 12.836C509.125 12.4524 508.674 12.405 505.714 12.5519C504.222 12.6229 501.614 12.6987 499.909 12.7129C498.216 12.7271 495.432 12.7839 493.726 12.8408C482.265 13.196 482.027 13.1913 483.13 12.6561C483.933 12.2724 486.704 12.1066 492.761 12.0924C495.382 12.0829 499.043 12.0403 500.899 11.9882C502.755 11.9409 507.809 11.884 512.122 11.8603C516.436 11.8414 522.367 11.794 525.301 11.7609C528.236 11.7277 537.44 11.6282 545.766 11.543C554.093 11.4577 561.29 11.3251 561.779 11.2446C562.381 11.1451 561.579 11.112 559.297 11.1309C557.441 11.1499 553.027 11.183 549.478 11.202C545.929 11.2257 540.261 11.2636 536.863 11.2872C533.465 11.3109 524.399 11.3393 516.699 11.3488C509 11.3583 499.031 11.4056 494.554 11.4625C490.077 11.5146 484.898 11.5714 483.055 11.5856C478.353 11.6235 469.312 11.8461 459.706 12.154C455.217 12.3008 450.138 12.4619 448.433 12.5187C446.728 12.5708 442.539 12.7176 439.129 12.8408C432.457 13.0823 420.244 13.3665 410.714 13.4992C407.466 13.5465 404.055 13.5986 403.127 13.6128C402.199 13.6318 398.55 13.6365 395.001 13.6318C391.465 13.6223 387.302 13.6602 385.747 13.717C384.192 13.7739 378.386 13.8165 372.844 13.8165C367.301 13.8165 361.407 13.8212 359.74 13.826C358.072 13.8307 356.253 13.7549 355.702 13.6507C354.962 13.5181 354.21 13.5228 352.981 13.6791C351.463 13.8686 351.288 13.8639 351.325 13.6365C351.363 13.4565 351.162 13.4234 350.648 13.5323C350.247 13.6176 348.103 13.6365 345.883 13.5749C343.664 13.5134 341.833 13.5276 341.82 13.6081C341.808 13.6839 342.109 13.7597 342.485 13.7739C343.037 13.7928 343.024 13.8165 342.472 13.8686C342.084 13.9065 341.043 13.7644 340.165 13.556C338.761 13.2197 337.858 13.1629 332.553 13.0823C316.553 12.8408 303.399 12.5377 303.424 12.4098C303.449 12.2677 307.938 12.2582 329.745 12.3671C336.353 12.4003 345.306 12.4098 349.62 12.3956C353.934 12.3766 363.012 12.3482 369.784 12.334C387.503 12.2913 388.443 12.2914 392.468 12.2629C394.475 12.2487 398.512 12.2108 401.447 12.1682C404.381 12.1303 409.159 12.1019 412.055 12.1019C414.952 12.1066 417.773 12.0498 418.313 11.974C418.852 11.903 419.391 11.8745 419.504 11.9172C419.717 11.9882 422.413 11.9645 437.649 11.7372C441.662 11.6756 447.229 11.5998 450 11.5667C452.784 11.5335 457.712 11.4293 460.96 11.3441C480.522 10.8136 486.729 10.7283 509.539 10.6525C531.747 10.5815 545.265 10.4441 564.802 10.0936C568.35 10.0321 573.655 9.97521 576.589 9.96574C579.511 9.961 582.859 9.93258 584.025 9.90416L594.445 9.96574C594.809 9.96574 595.11 9.90891 595.261 9.82839C595.536 9.82839 595.8 9.82365 596.101 9.82365C597.969 9.82365 599.349 9.79051 599.185 9.74788C598.759 9.63894 601.957 9.5726 610.045 9.51577C613.882 9.48735 618.534 9.42578 620.378 9.37842C622.221 9.33105 624.365 9.27896 625.155 9.26949C625.933 9.25528 626.948 9.2079 627.387 9.16527C627.964 9.10843 627.124 9.07056 624.566 9.03266C621.857 8.99477 621.255 8.96635 622.183 8.91425C624.616 8.78163 622.823 8.70585 617.995 8.73426C614.609 8.75321 612.691 8.72479 611.713 8.64427C610.948 8.57796 610.572 8.52585 610.898 8.52112C611.211 8.52112 611.474 8.44535 611.474 8.35535C611.474 8.21799 611.161 8.19905 609.355 8.23694C607.988 8.26536 607.236 8.24639 607.236 8.18482C607.236 8.12324 608.314 8.08537 609.995 8.08537C612.427 8.08537 612.766 8.06167 612.929 7.89116C613.105 7.7017 613.293 7.69224 621.092 7.66856C626.083 7.65435 628.955 7.61173 628.742 7.55963C628.554 7.51226 627.789 7.47435 627.036 7.47435C626.284 7.47435 625.669 7.43646 625.669 7.38909C625.669 7.24226 627.513 7.15228 630.698 7.13807C632.391 7.1286 634.522 7.10017 635.45 7.06702L637.131 7.01018L635.174 6.90599L633.218 6.80177L634.56 6.6881C635.638 6.59811 636.504 6.5981 638.911 6.67862C641.921 6.78282 643.538 6.71653 643.538 6.49392C643.626 6.29025 637.356 6.02972 630.485 5.93973ZM277.028 11.6803C277.504 11.6377 277.868 11.6709 277.855 11.7609C277.843 11.8509 277.441 11.9124 276.99 11.9077C276.526 11.8982 276.162 11.8651 276.162 11.8272C276.162 11.7893 276.551 11.723 277.028 11.6803ZM236.687 11.7846C234.844 11.7514 234.167 11.7088 235.183 11.6898C236.198 11.6709 237.703 11.6993 238.531 11.7514C239.358 11.8035 238.531 11.8224 236.687 11.7846ZM260.086 16.4168C259.785 16.4121 259.547 16.3316 259.56 16.2416C259.585 16.1516 259.848 16.0806 260.149 16.0853C260.45 16.09 260.688 16.1705 260.676 16.2605C260.663 16.3505 260.4 16.4216 260.086 16.4168ZM336.441 13.3665C336.98 13.3334 337.87 13.3523 338.397 13.3997C338.924 13.4518 338.485 13.4755 337.406 13.4565C336.328 13.4423 335.902 13.3997 336.441 13.3665ZM325.23 13.6271C326.121 13.6318 326.672 13.5655 326.484 13.466C326.309 13.3713 326.685 13.305 327.324 13.3144C327.951 13.3239 328.465 13.3997 328.44 13.4755C328.428 13.5513 331.111 13.6365 334.422 13.6602C338.384 13.6886 340.14 13.7549 339.563 13.8497C338.535 14.0202 326.722 13.9396 324.904 13.7502C323.751 13.627 323.776 13.6176 325.23 13.6271ZM313.857 12.9213C321.042 13.016 324.039 13.1108 324.014 13.2387C323.989 13.3429 322.848 13.4139 321.318 13.3997L318.659 13.376L320.866 13.5276L323.073 13.6791L320.942 13.7739C319.525 13.8355 318.246 13.7881 317.117 13.6223C314.76 13.2813 298.044 12.9497 293.216 13.1487C290.495 13.2623 283.837 13.1865 267.523 12.8692C255.409 12.6324 244.876 12.3908 244.111 12.3387C242.819 12.2487 242.794 12.2345 243.873 12.1114C244.713 12.0166 244.462 11.993 242.92 12.0214C240.499 12.064 239.521 11.7893 241.841 11.7182C242.694 11.6946 245.277 11.6898 247.584 11.7135C249.892 11.7372 252.111 11.6803 252.525 11.5903C252.939 11.5004 257.052 11.4246 261.666 11.4198C269.867 11.4104 275.36 11.5951 274.733 11.8603C274.557 11.9314 275.222 12.0498 276.213 12.1161C278.545 12.2724 300.728 12.7508 313.857 12.9213ZM610.095 3.63307C608.866 3.63307 607.863 3.59518 607.863 3.54782C607.863 3.50045 608.866 3.46256 610.095 3.46256C611.324 3.46256 612.327 3.50045 612.327 3.54782C612.327 3.59518 611.324 3.63307 610.095 3.63307ZM619.863 4.15881C618.396 4.21091 614.559 4.20146 614.559 4.14936C614.559 4.04989 617.393 3.99777 618.948 4.06882C619.763 4.11145 620.177 4.14934 619.863 4.15881Z" fill="black"/>
</g>
</svg>
